<svg width="279" height="108" viewBox="0 0 279 108" fill="none" xmlns="http://www.w3.org/2000/svg">
<path d="M0 0H108V108H0V0Z" fill="#1B1B1B"/>
<path d="M108 0H278.438V108H108V0Z" fill="#252525"/>
<path fill-rule="evenodd" clip-rule="evenodd" d="M139.982 36.2474H154.221C155.789 36.2474 157.446 36.4422 159.025 36.9888V36.2474H173.72C176.427 36.2474 179.175 36.9323 181.447 38.7572C181.494 38.7183 181.541 38.6798 181.589 38.6416C183.649 36.9956 186.083 36.2474 188.602 36.2474C191.853 36.2474 195.233 36.3854 198.741 36.6585L203.013 36.9911L203.246 36.2474H206.991L210.007 25.4775L213.023 36.2474H216.859L216.987 36.6561V36.2474H248.139L239.547 52.8945L248.495 69.5249H211.256L210.021 65.4519L208.813 69.5249H194.826C192.982 69.6271 191.017 69.6767 188.936 69.6767C188.234 69.6767 187.534 69.6279 186.842 69.5249H159.025V68.9659C157.562 69.3782 156.051 69.5249 154.616 69.5249H139.982V36.2474ZM168.921 64.1249V55.7414C169.233 55.7501 169.535 55.7578 169.825 55.7646C170.217 55.7738 170.588 55.7813 170.938 55.7871C171.541 55.7971 172.083 55.8021 172.566 55.8021L176.18 64.1249H180.767L176.575 55.1035C176.715 55.0439 176.851 54.9807 176.984 54.9138C177.29 54.7591 177.575 54.5849 177.84 54.3912C177.87 54.3698 177.899 54.3481 177.927 54.3262C177.95 54.3089 177.973 54.2915 177.995 54.2739C178.02 54.2545 178.045 54.2349 178.069 54.2152C178.487 53.8761 178.85 53.4837 179.157 53.038C179.805 52.1267 180.129 50.7295 180.129 48.8462C180.129 48.0935 180.083 47.405 179.992 46.7807C179.769 45.264 179.277 44.1265 178.514 43.3682C178.476 43.3302 178.437 43.2933 178.398 43.2572C178.34 43.2029 178.282 43.15 178.222 43.0985C178.196 43.0759 178.17 43.0536 178.144 43.0315C177.035 42.1088 175.56 41.6474 173.72 41.6474H164.425V64.1249H168.921ZM159.025 63.1506C159.253 63.0139 159.464 62.8628 159.658 62.6972C160.792 61.7455 161.359 60.1559 161.359 57.9284C161.359 57.6552 161.347 57.3919 161.324 57.1386C161.311 56.9869 161.293 56.8387 161.271 56.6941C161.119 55.7024 160.774 54.8786 160.235 54.2226C160.103 54.0578 159.965 53.9036 159.822 53.76C159.574 53.5126 159.308 53.2966 159.025 53.112C158.93 53.0502 158.834 52.9919 158.735 52.9371C158.694 52.9143 158.652 52.8922 158.61 52.8706C158.264 52.6921 157.894 52.5555 157.501 52.4609C157.779 52.3871 158.04 52.291 158.283 52.1726C158.311 52.1589 158.339 52.1449 158.367 52.1306C158.604 52.0084 158.823 51.8644 159.025 51.6985C159.297 51.4762 159.537 51.2146 159.747 50.9138C159.768 50.8831 159.789 50.8521 159.81 50.8206C160.258 50.1233 160.522 49.2627 160.603 48.2387C160.613 48.1111 160.62 47.9809 160.625 47.8481C160.628 47.7469 160.63 47.6443 160.63 47.5401C160.63 45.5924 160.105 44.1276 159.054 43.1455C159.045 43.1364 159.035 43.1274 159.025 43.1185C159.006 43.101 158.987 43.0837 158.968 43.0665C157.9 42.1204 156.318 41.6474 154.221 41.6474H145.382V64.1249H154.616C156.472 64.1249 157.942 63.8001 159.025 63.1506ZM154.494 60.085C154.535 60.085 154.576 60.0844 154.616 60.0833C154.853 60.0767 155.074 60.0504 155.277 60.0045C155.861 59.8725 156.303 59.5783 156.602 59.1218C156.61 59.1096 156.618 59.0974 156.626 59.085C156.822 58.7726 156.954 58.3871 157.022 57.9284C157.058 57.6856 157.076 57.4224 157.076 57.1386C157.076 57.0327 157.072 56.9296 157.065 56.8293C157.063 56.8072 157.061 56.7852 157.059 56.7633C157.028 56.4293 156.954 56.1275 156.837 55.8578C156.806 55.7854 156.772 55.7154 156.734 55.6476C156.629 55.4583 156.5 55.287 156.347 55.1339C156.301 55.0844 156.254 55.0373 156.206 54.9926C155.94 54.7475 155.63 54.5753 155.277 54.476C155.036 54.4083 154.775 54.3745 154.494 54.3745H149.877V60.085H154.494ZM154.251 50.9117C154.334 50.9117 154.415 50.9077 154.494 50.8997C154.788 50.8697 155.049 50.7836 155.277 50.6415C155.463 50.5257 155.627 50.3728 155.77 50.1827C155.926 49.9859 156.05 49.7625 156.143 49.5124C156.185 49.3996 156.22 49.2813 156.249 49.1576C156.291 48.9786 156.319 48.7882 156.334 48.5865C156.336 48.5692 156.337 48.5518 156.338 48.5344C156.344 48.4383 156.347 48.3398 156.347 48.2387C156.347 48.1933 156.346 48.1485 156.345 48.1043C156.341 47.9031 156.325 47.7151 156.298 47.5401C156.216 47.0002 156.03 46.585 155.739 46.2947C155.602 46.1502 155.448 46.0314 155.277 45.9384C154.984 45.7792 154.642 45.6956 154.251 45.6878C154.241 45.6876 154.231 45.6875 154.221 45.6874C154.211 45.6873 154.2 45.6872 154.19 45.6872H149.877V50.9117H154.251ZM168.921 52.1875H172.93C173.472 52.1875 173.936 52.0934 174.321 51.9051C174.554 51.7909 174.759 51.642 174.935 51.4585C174.955 51.4367 174.975 51.4141 174.994 51.3909C175.188 51.1566 175.338 50.8529 175.444 50.4801C175.45 50.4573 175.457 50.4343 175.463 50.411C175.464 50.408 175.464 50.4051 175.465 50.4021C175.578 49.9714 175.634 49.4527 175.634 48.8462C175.634 47.9217 175.494 47.2216 175.215 46.7457C175.2 46.7196 175.184 46.6943 175.168 46.6695C175.098 46.5623 175.021 46.4678 174.935 46.3859C174.759 46.21 174.554 46.0673 174.321 45.9579C174.138 45.8723 173.938 45.807 173.72 45.762C173.478 45.7122 173.215 45.6872 172.93 45.6872H168.921V52.1875ZM183.469 59.3256C183.469 60.7089 183.729 61.7692 184.25 62.5066C184.484 62.8378 184.77 63.1039 185.109 63.3047C185.588 63.5883 186.101 63.8097 186.649 63.9692C187.354 64.1742 188.116 64.2767 188.936 64.2767C189.243 64.2767 189.547 64.2756 189.848 64.2734C191.497 64.261 193.049 64.2147 194.503 64.1345C195.861 64.0596 197.134 63.9551 198.322 63.8211V60.0546H189.848C189.494 60.0546 189.19 60.0016 188.936 59.8957C188.647 59.7747 188.421 59.5847 188.261 59.3256C188.183 59.1984 188.12 59.0544 188.072 58.8938C188.061 58.8552 188.05 58.8155 188.041 58.775C188.038 58.764 188.035 58.753 188.033 58.7419C187.987 58.5356 187.964 58.3049 187.964 58.0499V54.9516L196.864 54.7086V51.1547L187.964 50.9117V47.6616C187.964 47.3703 188.001 47.1134 188.074 46.8908C188.083 46.8644 188.092 46.8385 188.102 46.8131C188.104 46.8086 188.105 46.804 188.107 46.7995C188.11 46.7932 188.112 46.787 188.115 46.7807C188.221 46.5189 188.383 46.3099 188.602 46.1539C188.925 45.9238 189.371 45.8087 189.939 45.8087H198.322V42.0422C195.424 41.8166 192.629 41.6877 189.939 41.6554C189.49 41.6501 189.045 41.6474 188.602 41.6474C187.185 41.6474 185.97 42.0524 184.957 42.8624C184.839 42.9566 184.728 43.0583 184.623 43.1672C183.854 43.9713 183.469 45.1758 183.469 46.7807V59.3256ZM212.893 41.6474H207.212L200.165 64.1249H204.782L206.18 59.4167H213.834L215.262 64.1249H219.94L212.893 41.6474ZM212.771 55.3769H207.243L210.007 45.505L212.771 55.3769ZM226.882 64.1249V55.0124H229.859L234.658 64.1249H239.458L233.443 52.9469L239.275 41.6474H234.476L229.859 50.9421H226.882V41.6474H222.387V64.1249H226.882Z" fill="white"/>
<path fill-rule="evenodd" clip-rule="evenodd" d="M42.2119 49.8229L35.4221 42.9879H42.2119V49.8229ZM42.2119 65.2004H35.4221L42.2119 58.3654V65.2004ZM49.8509 49.8229H43.0612V42.9879H49.8509V49.8229ZM65.1315 49.8229H58.3393V42.9879H65.1315V49.8229ZM57.4924 49.8229H50.7003V42.9879H57.4924V49.8229ZM49.8509 65.2004H43.0612V58.3654H49.8509V65.2004ZM65.1315 65.2004H58.3393V58.3654H65.1315V65.2004ZM57.4924 65.2004H50.7003V58.3654H57.4924V65.2004ZM65.9784 65.2004V58.3654H72.7706L65.9784 65.2004ZM72.7706 49.8229H65.9784V42.9879L72.7706 49.8229ZM72.7706 57.5117H65.9784V50.6767H72.7706V57.5117ZM49.8509 34.4454H43.0612V27.6104H49.8509V34.4454ZM42.2119 34.4454H35.4221L42.2119 27.6104V34.4454ZM65.1315 34.4454H58.3393V27.6104H65.1315V34.4454ZM57.4924 34.4454H50.7003V27.6104H57.4924V34.4454ZM65.9784 34.4454V27.6104H72.7706L65.9784 34.4454ZM42.2119 42.1341H35.4221V35.2991H42.2119V42.1341Z" fill="#00FFBB"/>
<path fill-rule="evenodd" clip-rule="evenodd" d="M42.4009 27.1523V34.6335H34.9693L42.4009 27.1523ZM42.8721 27.4222H50.04V34.6335H42.8721V27.4222ZM43.2503 27.7985V34.2572H49.6618V27.7985H43.2503ZM50.5112 27.4222H57.6815V34.6335H50.5112V27.4222ZM50.8893 27.7985V34.2572H57.3034V27.7985H50.8893ZM58.1502 27.4222H65.3206V34.6335H58.1502V27.4222ZM58.5284 27.7985V34.2572H64.9424V27.7985H58.5284ZM65.7893 27.4222H73.2235L65.7893 34.9032V27.4222ZM66.1675 27.7985V33.9875L72.3177 27.7985H66.1675ZM35.8749 34.2572H42.0228V28.0683L35.8749 34.2572ZM35.233 35.1109H42.4009V42.3223H35.233V35.1109ZM35.6112 35.4873V41.9459H42.0228V35.4873H35.6112ZM65.7893 42.53L73.2235 50.011H65.7893V42.53ZM34.9693 42.7997H42.4009V50.2808L34.9693 42.7997ZM35.8749 43.176L42.0228 49.3649V43.176H35.8749ZM42.8721 42.7997H50.04V50.011H42.8721V42.7997ZM43.2503 43.176V49.6347H49.6618V43.176H43.2503ZM50.5112 42.7997H57.6815V50.011H50.5112V42.7997ZM50.8893 43.176V49.6347H57.3034V43.176H50.8893ZM58.1502 42.7997H65.3206V50.011H58.1502V42.7997ZM58.5284 43.176V49.6347H64.9424V43.176H58.5284ZM66.1675 43.4457V49.6347H72.3177L66.1675 43.4457ZM65.7893 50.4885H72.9596V57.6998H65.7893V50.4885ZM66.1675 50.8648V57.3235H72.5815V50.8648H66.1675ZM42.4009 57.9074V65.3886H34.9693L42.4009 57.9074ZM42.8721 58.1772H50.04V65.3886H42.8721V58.1772ZM43.2503 58.5536V65.0123H49.6618V58.5536H43.2503ZM50.5112 58.1772H57.6815V65.3886H50.5112V58.1772ZM50.8893 58.5536V65.0123H57.3034V58.5536H50.8893ZM58.1502 58.1772H65.3206V65.3886H58.1502V58.1772ZM58.5284 58.5536V65.0123H64.9424V58.5536H58.5284ZM65.7893 58.1772H73.2235L65.7893 65.6583V58.1772ZM66.1675 58.5536V64.7426L72.3177 58.5536H66.1675ZM35.8749 65.0123H42.0228V58.8234L35.8749 65.0123Z" fill="#00FFBB"/>
<path fill-rule="evenodd" clip-rule="evenodd" d="M44.7428 72.7949H46.173V79.1317H51.7986L50.6271 80.3894H44.7428V72.7949ZM26.9093 77.3274H23.8049C23.7829 77.3274 23.7634 77.3274 23.7439 77.3274C22.4992 77.3274 21.4912 76.314 21.4912 75.0612C21.4912 73.8107 22.4992 72.7949 23.7439 72.7949C23.7634 72.7949 23.7829 72.7949 23.8049 72.7973V72.7949H29.1596L27.5781 74.2654H23.7414C23.3046 74.2654 22.9507 74.621 22.9507 75.0612C22.9507 75.5013 23.3046 75.8569 23.7414 75.8569H27.0899V75.8641C28.2492 75.9585 29.1596 76.9332 29.1596 78.1231C29.1596 79.376 28.1516 80.3894 26.9069 80.3894C26.8459 80.3894 26.7849 80.3869 26.7263 80.3821V80.3894H21.3692L23.0727 78.9188H26.9093C27.3462 78.9188 27.7001 78.5633 27.7001 78.1231C27.7001 77.6829 27.3462 77.3274 26.9093 77.3274ZM34.3946 72.7973V72.7949H39.5077V72.7973C40.2326 72.8288 40.8159 73.4141 40.8452 74.1421H40.8476V78.9188H40.8452C40.8476 78.9406 40.8476 78.96 40.8476 78.9817C40.8476 79.7388 40.2521 80.3555 39.5077 80.3894H34.3946C33.6503 80.3555 33.0548 79.7388 33.0548 78.9817C33.0548 78.96 33.0572 78.9406 33.0572 78.9188H33.0548V74.1421H33.0572C33.0889 73.4141 33.6698 72.8288 34.3946 72.7973ZM35.3538 74.1445C34.8999 74.1639 34.5362 74.5315 34.5167 74.991V77.9949C34.5167 78.007 34.5167 78.0215 34.5167 78.0336C34.5167 78.5101 34.8876 78.8995 35.3538 78.9188H38.5485C39.0147 78.8995 39.3857 78.5101 39.3857 78.0336C39.3857 78.0215 39.3857 78.007 39.3857 77.9949V74.991C39.3661 74.5315 39.0025 74.1639 38.5485 74.1445V74.1421H35.3538V74.1445ZM57.1191 74.8773V76.3479H61.9881V74.8773C61.9881 74.4033 61.6073 74.0212 61.1363 74.0212H57.9708C57.5022 74.0212 57.1191 74.4033 57.1191 74.8773ZM61.9881 80.3894V77.4508H57.1191V80.3894H55.6596V74.2654C55.6596 74.2461 55.6596 74.2243 55.6596 74.205C55.6596 73.4262 56.2844 72.7949 57.058 72.7949C57.08 72.7949 57.0995 72.7949 57.1191 72.7973V72.7949H62.1101V72.7973C62.8569 72.8288 63.45 73.4455 63.45 74.205C63.45 74.2243 63.45 74.2461 63.4475 74.2654H63.45V80.3894H61.9881ZM80.4927 74.8773V76.3479H85.3617V74.8773C85.3617 74.4033 84.9809 74.0212 84.5099 74.0212H81.3444C80.8759 74.0212 80.4927 74.4033 80.4927 74.8773ZM85.3617 80.3894V77.4508H80.4927V80.3894H79.0332V74.2654C79.0332 74.2461 79.0332 74.2243 79.0332 74.205C79.0332 73.4262 79.658 72.7949 80.4317 72.7949C80.4536 72.7949 80.4732 72.7949 80.4927 72.7973V72.7949H85.4837V72.7973C86.2305 72.8288 86.8236 73.4455 86.8236 74.205C86.8236 74.2243 86.8236 74.2461 86.8212 74.2654H86.8236V80.3894H85.3617ZM73.6761 78.5512V72.7949H75.1356V80.3894H73.6761V80.3773L68.8071 74.7564V80.3894H67.3452V72.7949H68.8071L73.6761 78.5512Z" fill="white"/>
</svg>
