<svg width="369" height="95" viewBox="0 0 295 77" fill="none" xmlns="http://www.w3.org/2000/svg">
<path d="M72.9839 0.249512H89.2021C91.2458 0.605957 92.2676 1.11686 92.2676 1.78223V2.45947C92.6478 2.45947 92.8379 2.53076 92.8379 2.67334C92.6478 2.86344 92.5527 3.23177 92.5527 3.77832C92.8379 3.77832 93.2062 4.07536 93.6577 4.66943L93.0874 4.8833C93.0874 4.74072 93.0042 4.66943 92.8379 4.66943V5.31104L93.3726 5.98828C91.7091 6.58236 90.8774 7.31901 90.8774 8.19824C80.9207 10.6458 72.3423 13.438 65.1421 16.5747C63.0272 17.4539 60.14 18.4876 56.4805 19.6758V19.8896H71.8433C73.9344 19.8896 76.6434 19.8184 79.9702 19.6758C83.5109 20.46 85.2812 21.2679 85.2812 22.0996V23.1689H85.5664V23.6323C84.806 23.6323 84.4258 23.7749 84.4258 24.0601C84.6159 24.8442 84.7109 25.2839 84.7109 25.3789C84.3307 25.8779 84.1406 26.3175 84.1406 26.6978V27.375C83.5228 27.4701 78.8652 29.8226 70.168 34.4326C60.0449 39.613 43.2682 49.9736 19.8379 65.5146C15.0615 69.0316 9.01383 71.5267 1.69482 73C1.69482 72.7148 1.40967 72.5723 0.839355 72.5723V72.3584C0.839355 71.598 4.4751 67.5583 11.7466 60.2393V59.9897C11.3664 59.9897 11.1763 59.8472 11.1763 59.562V56.7104C11.1763 55.1659 12.3882 51.8509 14.812 46.7656C20.9666 28.3255 26.0044 13.7826 29.9253 3.13672L31.6006 2.03174H33.2759L34.0957 2.45947L35.5215 1.56836C35.569 1.87728 35.7472 2.03174 36.0562 2.03174C36.0562 1.58024 48.3654 0.986165 72.9839 0.249512ZM61.5063 8.62598C46.0366 8.95866 38.3018 9.39827 38.3018 9.94482C38.3018 10.3013 37.7433 11.9172 36.6265 14.7925C36.8879 14.7925 37.173 15.0182 37.4819 15.4697L37.1968 15.8975C37.5532 15.945 37.7314 16.0994 37.7314 16.3608C37.2799 16.646 36.9116 16.7886 36.6265 16.7886C36.8166 17.0737 36.9116 17.2995 36.9116 17.4658C40.7375 16.5866 49.304 13.64 62.6113 8.62598V8.41211C61.9697 8.55469 61.6014 8.62598 61.5063 8.62598ZM32.4204 27.375C32.064 27.8978 29.2718 36.1317 24.0439 52.0767H24.3291C41.3197 40.8843 54.5557 32.8761 64.0371 28.0522V27.8027H51.4546C48.8169 27.8027 42.4722 27.6602 32.4204 27.375Z" fill="#AC62DE"/>
<path d="M97.9351 0C98.6004 0.0950521 99.4321 0.23763 100.43 0.427734L102.533 0.855469C102.747 0.902995 102.949 0.926758 103.139 0.926758C103.282 0.926758 103.412 0.914876 103.531 0.891113L103.995 1.10498C104.161 1.08122 104.304 1.06934 104.422 1.06934C104.541 1.06934 104.648 1.08122 104.743 1.10498L104.672 1.24756L109.092 1.63965C125.465 4.72884 138.035 9.54085 146.804 16.0757C147.422 17.4777 147.73 18.6183 147.73 19.4976C147.73 19.7352 147.707 19.9609 147.659 20.1748C146.851 23.1689 144.107 25.2957 139.425 26.5552C137.857 28.5037 132.083 30.7137 122.102 33.1851L135.647 50.4014C140.043 55.2728 143.18 61.8314 145.057 70.0771C145.033 70.2435 144.962 70.3267 144.843 70.3267C144.083 70.3267 141.16 65.9661 136.075 57.2451L145.77 76.7427L141.243 73.2495C141.433 73.5584 141.528 73.7961 141.528 73.9624V74.0693L140.815 73.9268C139.77 73.4277 133.58 67.487 122.245 56.1045C118.039 50.9479 113.464 44.627 108.521 37.1416L108.272 37.106C105.159 48.3934 101.452 58.2194 97.1509 66.584C96.3667 68.1048 94.929 71.4673 92.8379 76.6714L92.3745 76.5645L93.3369 73.0356L93.123 72.9644L92.4102 74.6753L92.0181 76.0298L91.8042 75.9585C90.5448 75.7209 89.5942 73.3327 88.9526 68.7939C88.9764 66.7028 89.5824 64.8018 90.7705 63.0908L91.9824 60.8096C91.9587 59.4313 91.8993 58.7422 91.8042 58.7422C91.7567 58.7422 91.7091 58.8254 91.6616 58.9917V58.8135C91.4478 58.8135 89.8913 62.8532 86.9922 70.9326C88.0853 66.3939 88.6318 63.875 88.6318 63.376V63.269C88.6081 63.269 88.5724 63.3166 88.5249 63.4116L87.3486 60.9878C91.0319 50.9123 92.9092 45.7082 92.9805 45.3755L93.1943 44.6626L92.9448 44.5913C91.7091 48.6073 90.2002 52.8965 88.418 57.459L86.7427 60.5957C86.2199 61.2135 85.8516 61.5225 85.6377 61.5225C85.4714 61.5225 85.3882 61.368 85.3882 61.0591C85.3882 59.562 87.2536 54.3698 90.9844 45.4824C92.1012 41.4427 93.3013 35.8584 94.5845 28.7295C95.3449 26.0205 96.034 24.1313 96.6519 23.062V22.9907C96.6519 22.9432 96.5924 22.9076 96.4736 22.8838C98.5885 18.7728 100.406 13.9845 101.927 8.51904C99.0044 7.63981 95.7964 5.47738 92.3032 2.03174L97.9351 0ZM119.322 12.9033V12.9746C120.557 13.1885 121.211 13.3073 121.282 13.3311L121.247 13.5093C121.175 13.4855 120.26 13.4499 118.502 13.4023L115.971 13.1528L115.615 13.1885V13.6162C115.615 13.8776 115.603 14.0915 115.579 14.2578L113.476 20.8164C113.381 20.8164 113.333 20.8283 113.333 20.8521L113.512 20.8877C120.189 20.3411 124.158 19.7352 125.417 19.0698C129.766 18.0243 131.987 17.2044 132.083 16.6104L132.154 16.3608C128.97 15.0063 124.823 13.8657 119.714 12.939L119.322 12.9033Z" fill="#AC62DE"/>
<path d="M167.513 7.8418C168.868 7.86556 170.27 8.23389 171.719 8.94678C177.826 8.40023 182.983 8.07943 187.189 7.98438C193.724 8.24577 199.13 8.37646 203.407 8.37646L203.443 8.66162L201.162 8.8042V8.94678H203.764C203.36 9.37451 201.744 9.87354 198.916 10.4438C197.3 11.0142 195.363 11.4775 193.106 11.834L193.142 11.9766L200.912 12.3687L200.983 12.6538H199.094C198.833 12.6776 198.702 12.7607 198.702 12.9033V12.939H201.019L201.09 13.2241C198.999 13.8657 192.726 14.8281 182.27 16.1113C179.347 16.1826 176.864 16.2183 174.82 16.2183L174.357 16.3608C174.072 16.2658 173.751 16.2183 173.395 16.2183H171.292C170.983 16.3846 170.519 17.1688 169.901 18.5708C169.925 18.6896 170.484 19.153 171.577 19.9609C171.292 20.056 171.066 20.1035 170.899 20.1035L170.935 20.2104L171.755 20.7808C169.83 26.4839 168.868 29.5018 168.868 29.8345V29.8701L172.325 29.585L172.361 29.7275C173.097 29.5374 174.476 29.4424 176.496 29.4424H177.672C178.575 29.4424 182.555 29.8582 189.613 30.6899H189.827L189.898 30.9751C189.779 30.9751 189.316 31.0107 188.508 31.082L188.543 31.2246H190.183L190.219 31.5098C186.844 32.1989 184.634 32.8405 183.589 33.4346C181.807 33.7197 179.858 34.0881 177.743 34.5396L177.779 34.6821H178.242L178.278 34.8247C173.43 37.106 169.521 38.2466 166.551 38.2466C165.434 44.3774 163.711 49.7954 161.382 54.5005L161.418 54.75C163.889 54.4886 166.206 54.3579 168.369 54.3579C176.852 54.5243 181.854 54.6074 183.375 54.6074H185.478L185.549 54.8926C185.335 54.8926 184.563 54.9401 183.232 55.0352L183.268 55.1777H185.122L185.157 55.3203V55.356C185.157 55.4985 184.943 55.5698 184.516 55.5698V55.7124L185.977 55.855L186.013 56.1401H185.763C185.573 56.1401 184.813 56.1877 183.482 56.2827V56.4253C185.787 56.4253 187.985 56.4728 190.076 56.5679L190.112 56.8174C188.781 56.9124 188.021 56.96 187.831 56.96V57.1025H190.183L190.219 57.3877C188.104 57.9105 184.052 58.6353 178.064 59.562C177.755 59.8234 174.25 60.6551 167.549 62.0571C165.814 62.8888 160.218 63.7562 150.76 64.6592C149.453 64.6592 148.8 64.873 148.8 65.3008V65.3721C148.657 65.7285 148.467 65.9067 148.229 65.9067H147.98L147.837 65.2295H147.624L147.517 65.9067H147.053C146.435 65.1463 146.103 64.6473 146.055 64.4097L145.841 63.4473L145.307 63.0195L145.271 62.877L145.449 62.5918C144.261 62.5918 143.156 62.1403 142.134 61.2373C141.92 61.2373 141.659 61.0947 141.35 60.8096L141.314 60.5244V60.3818C141.314 59.8828 141.932 59.158 143.168 58.2075C143.857 57.2332 144.82 56.5916 146.055 56.2827C147.647 50.8647 149.156 44.722 150.582 37.8545C153.41 30.1315 156.57 22.5155 160.063 15.0063H159.85C158.875 14.8162 158.364 14.6261 158.317 14.436L158.424 13.7588C157.806 13.7588 157.461 13.6162 157.39 13.3311V13.1885C157.39 12.8083 157.604 12.3568 158.032 11.834C157.842 11.6676 157.735 11.4894 157.711 11.2993H158.388L158.103 11.0142L158.067 10.729C159.184 9.63591 161.406 9.08936 164.733 9.08936C165.161 8.3527 165.874 7.98438 166.872 7.98438C166.872 8.07943 166.955 8.12695 167.121 8.12695C167.121 7.93685 167.252 7.8418 167.513 7.8418ZM156.57 53.7876V53.8589C156.57 54.144 156.345 54.5837 155.893 55.1777H156.606C156.891 55.1777 157.034 55.0946 157.034 54.9282V54.8926L156.784 53.7876H156.57Z" fill="#AC62DE"/>
<path d="M235.06 6.55859C235.107 6.77246 235.273 6.87939 235.559 6.87939C235.891 6.76058 236.141 6.70117 236.307 6.70117C237.994 7.79427 238.838 9.58838 238.838 12.0835V12.4756C236.842 26.9235 235.784 35.7633 235.666 38.9951C237.709 38.5674 238.874 38.3535 239.159 38.3535C239.159 38.4723 238.66 38.7337 237.662 39.1377H237.911C238.576 38.9238 239.159 38.8169 239.658 38.8169C239.254 39.2446 237.733 40.1001 235.095 41.3833C234.81 44.6864 234.656 46.8726 234.632 47.9419H234.382C234.382 48.0369 234.454 48.0845 234.596 48.0845C232.41 63.3641 231.317 71.3009 231.317 71.895H230.818V71.6099C230.818 71.0633 230.758 70.2554 230.64 69.186H230.39L230.319 71.895H229.82V71.396C229.345 71.396 229.071 72.3584 229 74.2832H228.501L228.323 72.3584H228.073L228.002 74.1406H227.503C226.719 73 225.958 71.1821 225.222 68.687H224.972L224.937 69.186H224.473L224.544 66.6196H224.295L223.974 68.5444V68.687H223.475C222.833 67.0949 222.513 64.6948 222.513 61.4868C222.513 60.8927 222.525 60.263 222.548 59.5977H222.049V60.061H221.55L221.835 58.9561L221.907 57.4946H221.657C221.633 57.7323 221.443 58.4808 221.087 59.7402H220.588V59.3125C220.588 58.8135 220.445 58.2075 220.16 57.4946C220.683 51.7202 220.968 48.429 221.016 47.6211C214.481 50.9004 209.704 52.6589 206.687 52.8965C203.669 56.7936 201.007 59.5026 198.702 61.0234L195.744 60.8809H194.746L194.247 61.0234C194.104 60.8333 194.033 60.6195 194.033 60.3818L193.534 60.5601C191.965 59.2056 191.181 58.16 191.181 57.4233V56.8887C191.3 53.3242 198.595 43.2606 213.067 26.6978C213.994 25.3908 218.283 20.6501 225.935 12.4756C226.03 9.90918 227.562 8.62598 230.533 8.62598L230.782 8.94678L230.533 9.26758H231.495C231.543 8.34082 232.149 7.59229 233.313 7.02197C233.646 7.14079 233.895 7.2002 234.062 7.2002C234.062 7.03385 234.394 6.81999 235.06 6.55859ZM225.15 14.0796C225.15 14.2459 224.794 14.8281 224.081 15.8262V15.9688H224.331C224.331 15.7311 224.675 15.3153 225.364 14.7212L225.4 14.0796H225.15ZM223.867 29.7275C223.843 30.3929 220.707 34.9673 214.457 43.4507C216.952 42.5952 219.447 41.9536 221.942 41.5259V41.3833L224.081 29.8701L224.117 29.7275H223.867Z" fill="#AC62DE"/>
<path d="M292.162 7.09326C292.281 7.23584 292.34 7.34277 292.34 7.41406V7.44971L292.804 7.34277L293.196 8.19824C292.53 10.1706 290.356 12.6182 286.673 15.541C290.998 13.0459 293.267 11.7983 293.481 11.7983V11.9409L291.984 13.2598H292.198C293.172 12.6657 293.671 12.2974 293.695 12.1548H294.158C294.063 12.9152 291.627 15.743 286.851 20.6382C283.762 23.8224 277.203 28.8245 267.175 35.6445C263.991 38.2585 262.387 39.6605 262.363 39.8506C263.409 41.1338 265.298 45.6963 268.031 53.5381C269.029 55.4391 270.098 59.8234 271.239 66.6909C271.975 68.4731 272.427 69.9702 272.593 71.1821H272.166L271.987 70.5762H271.773L271.702 71.0752C270.823 70.8851 269.516 69.4712 267.781 66.8335C266.973 66.3582 264.74 63.6968 261.08 58.8491C256.636 53.8826 253.63 49.8073 252.062 46.623H251.599C249.793 47.6924 248.771 49.4271 248.533 51.8271L242.688 68.2949C242.521 68.2949 242.402 68.6989 242.331 69.5068H242.082C241.82 69.5068 241.689 69.293 241.689 68.8652C241.689 68.7464 241.701 68.6276 241.725 68.5088H241.511L241.155 69.6138C239.61 69.3524 238.814 66.0493 238.767 59.7046C238.957 57.756 239.325 54.9282 239.872 51.2212L240.371 33.5771C240.893 28.5869 243.555 20.6501 248.355 9.7666C248.949 8.79232 250.22 8.30518 252.169 8.30518H252.846C252.846 8.47152 252.917 8.55469 253.06 8.55469C253.369 8.45964 253.607 8.41211 253.773 8.41211L255.413 10.123L255.341 10.729L256.268 10.8359V10.5864L255.876 10.23V9.98047L257.551 9.37451H257.765C258.193 9.54085 259.631 9.74284 262.078 9.98047C263.1 11.335 263.611 12.2142 263.611 12.6182V12.6538L255.769 30.9038C258.074 29.3117 262.411 25.7235 268.779 20.1392L280.435 9.51709C280.863 9.51709 281.338 9.39827 281.861 9.16064C282.122 9.16064 282.253 9.27946 282.253 9.51709V9.62402H283.18C283.298 9.3151 283.548 9.16064 283.928 9.16064H284.142L284.819 9.37451C287.148 8.51904 289.204 7.8418 290.986 7.34277C291.509 7.17643 291.901 7.09326 292.162 7.09326Z" fill="#AC62DE"/>
</svg>
