<svg width="715" height="757" viewBox="0 0 715 757" fill="none" xmlns="http://www.w3.org/2000/svg">
<path d="M462.668 593.716L579.847 418.381C645.159 320.655 629.633 189.873 543.239 110.016L379.334 -41.4877C307.224 -108.142 201.734 -123.971 113.335 -81.4019L-138.239 39.7443C-160.671 50.5466 -184.999 56.8691 -209.86 58.3576L-224.57 59.2383C-306.309 64.1322 -373.425 125.551 -385.525 206.53C-395.036 270.18 -368.499 333.893 -316.601 372.014L-169.492 480.068C-139.465 502.124 -115 530.886 -98.0504 564.062L-89.7511 580.306C-45.8095 666.311 45.536 717.481 141.783 710.008L282.645 699.07C355.65 693.402 421.996 654.575 462.668 593.716Z" stroke="url(#paint0_radial)" stroke-width="3"/>
<path d="M448.202 622.87L586.123 426.912C654.113 330.31 642.248 199.37 558.142 118.133L376.764 -57.0605C306.517 -124.912 201.445 -142.475 111.846 -101.343L-163.72 25.1611C-187.621 36.1337 -213.386 42.3628 -239.569 43.4992L-254.963 44.1674C-341.076 47.905 -413.468 111.334 -428.568 196.278C-440.433 263.024 -414.408 330.458 -360.968 371.437L-207.208 489.345C-177.808 511.89 -154.158 541.046 -138.144 574.488L-125.109 601.71C-83.5831 688.428 6.33487 741.096 102.794 735.201L265.244 725.271C338.41 720.799 405.84 683.059 448.202 622.87Z" stroke="url(#paint1_radial)" stroke-width="3"/>
<path d="M479.258 565.344L575.517 409.36C636.748 310.139 615.812 179.871 526.151 102.191L378.193 -25.9948C303.337 -90.8479 197.206 -104.097 110.585 -59.4029L-116.629 57.8357C-137.524 68.6173 -160.398 75.1869 -183.969 77.1765L-197.882 78.3509C-275.389 84.893 -336.768 144.795 -345.079 222.005C-351.611 282.685 -323.881 342.591 -273.054 377.604L-131.309 475.246C-100.379 496.553 -74.732 524.695 -56.4149 557.429L-53.1264 563.305C-5.63626 648.172 87.8103 697.079 183.728 687.268L303.642 675.001C376.397 667.559 441.12 627.145 479.258 565.344Z" stroke="url(#paint2_radial)" stroke-width="3"/>
<path d="M493.077 535.755L570.516 401.875C628.458 301.702 603.448 172.17 511.51 96.2659L384.197 -8.84452C307.225 -72.3925 200.483 -83.6789 115.173 -37.2896L-87.3582 72.8414C-106.759 83.3911 -128.159 89.9982 -150.356 92.2917L-163.105 93.6089C-236.185 101.16 -292.416 158.816 -297.948 231.871C-302.29 289.214 -274.34 345.224 -225.329 377.391L-90.1378 466.122C-59.4081 486.291 -33.6135 513.192 -14.8102 544.679C33.9933 626.405 126.506 672.315 219.62 661.017L320.83 648.737C393.419 639.929 456.909 598.284 493.077 535.755Z" stroke="url(#paint3_radial)" stroke-width="3"/>
<path d="M505.918 506.794L566.041 394.516C620.177 293.42 590.6 164.959 496.198 91.1677L389.677 7.90285C310.307 -54.1387 202.846 -63.1748 119.034 -14.855L-59.4382 88.0387C-77.3687 98.3761 -97.3263 105.036 -118.185 107.643L-129.659 109.077C-198.461 117.675 -249.634 173.188 -252.363 242.186C-254.501 296.245 -226.279 348.399 -179.003 377.752L-48.7207 458.642C-19.1057 477.03 6.07905 501.837 24.8276 531.088C73.5694 607.133 162.441 648.565 249.946 636.038L337.549 623.497C409.939 613.134 472.015 570.107 505.918 506.794Z" stroke="url(#paint4_radial)" stroke-width="3"/>
<path d="M517.402 477.198L561.558 387.701C611.803 285.863 577.75 158.745 481.049 87.1666L397.519 25.3376C315.744 -35.192 207.516 -41.9541 125.204 8.32304L-29.124 102.587C-45.5842 112.641 -64.0799 119.287 -83.5607 122.148L-93.6352 123.628C-158.059 133.089 -204.313 186.199 -204.532 250.963C-204.704 301.574 -176.521 349.796 -131.231 376.383L-6.57914 449.559C21.7572 466.193 46.1476 488.903 64.6517 515.88C112.866 586.174 197.714 623.244 279.47 609.735L352.958 597.591C425.147 585.663 485.794 541.261 517.402 477.198Z" stroke="url(#paint5_radial)" stroke-width="3"/>
<path d="M529.625 446.511L558.654 380.457C603.721 277.91 563.964 152.919 464.478 84.3775L405.602 43.8147C320.675 -14.6963 211.395 -18.4286 131.07 34.4385L2.0434 119.36C-12.8488 129.162 -29.8045 135.842 -47.8505 139.016L-56.2121 140.487C-116.142 151.03 -157.133 201.784 -154.473 262.153C-152.403 309.131 -124.088 353.149 -80.7544 376.752L38.2672 441.582C65.3248 456.32 88.9567 476.771 107.287 501.313C155.225 565.495 236.111 597.808 311.906 583.056L370.412 571.669C442.319 557.674 501.068 511.491 529.625 446.511Z" stroke="url(#paint6_radial)" stroke-width="3"/>
<path d="M538.442 414.164L554.502 372.752C594.422 269.82 549.318 147.322 447.403 81.885L415.839 61.6177C327.814 5.09909 217.427 4.39192 139.069 59.8446L34.9501 133.528C21.6001 142.976 6.18908 149.59 -10.3871 152.986L-16.9626 154.333C-72.2998 165.669 -108.3 213.726 -103.243 269.509C-99.3283 312.694 -71.3487 352.482 -30.3086 373.225L82.1352 430.057C107.697 442.977 130.314 461.212 148.195 483.317C195.175 541.395 271.586 569.204 341.293 553.594L384.431 543.934C456.051 527.895 512.917 479.98 538.442 414.164Z" stroke="url(#paint7_radial)" stroke-width="3"/>
<path d="M542.966 390.008L551.276 364.648C585.083 261.475 531.977 141.221 427.172 79.733C335.49 25.9437 222.548 28.2124 146.741 86.6613L66.5572 148.485C54.7566 157.583 40.8937 164.145 25.7854 167.784L20.8883 168.963C-29.8364 181.18 -60.7687 226.53 -53.2292 277.626C-47.4255 316.959 -19.723 352.432 19.0796 370.218L125.115 418.821C149.218 429.869 170.859 445.835 188.33 465.458C234.464 517.277 306.463 540.404 370.077 523.838L407.448 514.107C472.834 497.08 522.907 451.226 542.966 390.008Z" stroke="url(#paint8_radial)" stroke-width="3"/>
<path d="M546.675 366.095L553.213 340.503C577.363 245.985 523.726 140.699 424.922 88.6719C336.435 42.0771 232.27 49.2807 165.359 106.622L99.8113 162.795C89.6069 171.54 77.3304 178.052 63.7239 181.938L61.1298 182.679C14.9652 195.862 -10.9098 238.545 -0.84487 284.913C6.82221 320.233 34.1086 351.246 70.552 366.06L169.685 406.355C192.209 415.511 212.745 429.154 229.679 446.214C274.818 491.687 342.36 510.05 399.824 492.472L431.724 482.713C489.923 464.91 532.451 421.765 546.675 366.095Z" stroke="url(#paint9_radial)" stroke-width="3"/>
<path d="M546.874 342.244L551.92 316.054C568.261 231.232 514.948 139.915 423.888 96.7551C340.668 57.3116 245.466 67.5422 187.489 122.159L133.274 173.231C124.516 181.481 113.734 187.79 101.593 191.767L100.673 192.068C59.1053 205.686 37.668 245.26 49.3444 286.822C58.1587 318.198 84.4032 345.04 118.158 357.203L209.639 390.168C230.412 397.654 249.591 409.191 265.677 423.88C308.908 463.356 371.392 477.584 422.8 459.657L449.919 450.2C501.322 432.276 537.232 392.292 546.874 342.244Z" stroke="url(#paint10_radial)" stroke-width="3"/>
<path d="M546.089 317.129L549.088 288.686C556.92 214.422 504.294 138.366 421.756 104.663C343.376 72.658 256.81 86.6162 208.247 139.09L166.803 183.872C159.598 191.658 150.389 197.812 139.771 201.938C103.661 215.972 87.2885 251.749 100.594 287.549L101.148 289.039C111.26 316.246 136.459 338.65 167.481 348.014L251.015 373.228C269.951 378.944 287.691 388.244 302.866 400.411C344.299 433.629 401.828 443.341 447.046 424.75L468.557 415.905C512.676 397.766 541.452 361.106 546.089 317.129Z" stroke="url(#paint11_radial)" stroke-width="3"/>
<path d="M543.531 290.551L543.479 260.134C543.37 197.067 492.501 136.604 419.24 112.465C346.175 88.3902 268.807 106.372 230.097 156.425L200.908 194.167C195.292 201.43 187.71 207.394 178.677 211.655C148.712 225.793 137.515 257.014 151.901 286.31L153.717 290.007C164.924 312.83 188.795 330.626 216.863 337.085L291.915 354.355C308.87 358.256 325.011 365.257 339.111 374.825C378.411 401.493 430.607 406.458 469.365 387.214L485.282 379.31C521.92 361.119 543.595 328.09 543.531 290.551Z" stroke="url(#paint12_radial)" stroke-width="3"/>
<path d="M538.359 263.718L534.105 231.547C527.32 180.24 480.054 135.134 417.229 120.014C350.222 103.887 282.569 125.882 253.895 173.116L235.936 202.701C231.898 209.353 225.96 215.054 218.555 219.388C194.809 233.289 188.316 259.684 203.044 282.449L206.707 288.11C218.572 306.449 240.619 319.676 265.412 323.328L331.219 333.023C345.984 335.198 360.266 339.972 373.005 346.991C409.565 367.134 455.949 367.421 488.076 347.702L498.473 341.321C527.535 323.483 542.43 294.504 538.359 263.718Z" stroke="url(#paint13_radial)" stroke-width="3"/>
<path d="M531.396 240.581L522.817 208.228C512.237 168.33 471.115 136.37 419.716 128.098C360.411 118.553 303.128 142.888 283.508 185.963L273.935 206.981C271.263 212.847 266.834 218.073 260.997 222.249C242.999 235.124 239.981 256.605 253.793 273.524L259.355 280.337C270.923 294.506 290.328 303.82 311.41 305.321L367.07 309.284C379.415 310.163 391.507 313.148 402.477 318.025C435.101 332.528 474.934 329.291 500.619 310.049L506.391 305.725C528.439 289.208 537.814 264.783 531.396 240.581Z" stroke="url(#paint14_radial)" stroke-width="3"/>
<path d="M521.063 216.573L506.146 184.973C492.907 156.929 459.389 137.702 420.419 135.797C369.699 133.319 324.006 160.581 314.401 199.051L311.554 210.457C310.308 215.445 307.48 220.142 303.321 224.129C291.235 235.714 291.404 252.105 303.724 263.209L311.884 270.564C322.824 280.425 339.154 285.798 356.172 285.137L401.053 283.394C410.761 283.017 420.424 284.248 429.384 287.005C457.604 295.687 490.243 288.637 508.962 269.816L510.452 268.318C525.251 253.438 529.253 233.922 521.063 216.573Z" stroke="url(#paint15_radial)" stroke-width="3"/>
<path d="M505.142 203.28L494.267 180.158C484.508 159.408 459.708 145.186 430.884 143.81C393.535 142.025 359.906 162.092 352.786 190.41L350.627 198.995C349.702 202.674 347.613 206.136 344.544 209.077C335.608 217.639 335.728 229.755 344.832 237.966L350.769 243.32C358.835 250.596 370.886 254.555 383.437 254.053L416.537 252.73C423.704 252.444 430.841 253.347 437.459 255.377C458.257 261.758 482.297 256.558 496.093 242.695L497.263 241.52C508.204 230.526 511.175 216.107 505.142 203.28Z" stroke="url(#paint16_radial)" stroke-width="3"/>
<path d="M487.202 192.022L480.457 177.579C474.273 164.337 458.447 155.266 440.064 154.426C416.446 153.348 395.202 166.026 390.642 183.922L389.201 189.576C388.607 191.909 387.277 194.104 385.329 195.968C379.634 201.421 379.705 209.138 385.5 214.371L389.168 217.684C394.281 222.302 401.933 224.808 409.895 224.473L430.888 223.59C435.443 223.398 439.981 223.964 444.19 225.248C457.365 229.268 472.574 225.971 481.312 217.2L482.14 216.368C489.111 209.372 491.019 200.195 487.202 192.022Z" stroke="url(#paint17_radial)" stroke-width="3"/>
<path d="M470.351 182.793L466.99 175.685C464.023 169.411 456.518 165.109 447.799 164.678C436.433 164.117 426.183 170.227 424.038 178.849L423.406 181.389C423.128 182.507 422.495 183.56 421.563 184.453C418.858 187.046 418.896 190.715 421.655 193.2L423.495 194.858C425.947 197.067 429.605 198.272 433.418 198.126L443.474 197.741C445.649 197.658 447.812 197.934 449.819 198.553C456.144 200.501 463.462 198.921 467.658 194.702L467.981 194.376C471.294 191.045 472.187 186.676 470.351 182.793Z" stroke="url(#paint18_radial)" stroke-width="3"/>
<defs>
<radialGradient id="paint0_radial" cx="0" cy="0" r="1" gradientUnits="userSpaceOnUse" gradientTransform="translate(405.683 317.052) rotate(150.588) scale(964.875 829.9)">
<stop/>
<stop offset="0.302083" stop-color="#082528"/>
<stop offset="0.713542" stop-color="#28003D"/>
<stop offset="1" stop-color="#71196F"/>
</radialGradient>
<radialGradient id="paint1_radial" cx="0" cy="0" r="1" gradientUnits="userSpaceOnUse" gradientTransform="translate(399.877 326.105) rotate(151.676) scale(1019.48 868.46)">
<stop/>
<stop offset="0.302083" stop-color="#082528"/>
<stop offset="0.713542" stop-color="#28003D"/>
<stop offset="1" stop-color="#71196F"/>
</radialGradient>
<radialGradient id="paint2_radial" cx="0" cy="0" r="1" gradientUnits="userSpaceOnUse" gradientTransform="translate(411.224 308.675) rotate(148.956) scale(910.563 794.733)">
<stop/>
<stop offset="0.302083" stop-color="#082528"/>
<stop offset="0.713542" stop-color="#28003D"/>
<stop offset="1" stop-color="#71196F"/>
</radialGradient>
<radialGradient id="paint3_radial" cx="0" cy="0" r="1" gradientUnits="userSpaceOnUse" gradientTransform="translate(417.986 300.327) rotate(147.669) scale(854.197 754.534)">
<stop/>
<stop offset="0.302083" stop-color="#082528"/>
<stop offset="0.713542" stop-color="#28003D"/>
<stop offset="1" stop-color="#71196F"/>
</radialGradient>
<radialGradient id="paint4_radial" cx="0" cy="0" r="1" gradientUnits="userSpaceOnUse" gradientTransform="translate(424.084 292.329) rotate(146.189) scale(799.27 715.897)">
<stop/>
<stop offset="0.302083" stop-color="#082528"/>
<stop offset="0.713542" stop-color="#28003D"/>
<stop offset="1" stop-color="#71196F"/>
</radialGradient>
<radialGradient id="paint5_radial" cx="0" cy="0" r="1" gradientUnits="userSpaceOnUse" gradientTransform="translate(430.341 284.414) rotate(144.683) scale(743.368 675.416)">
<stop/>
<stop offset="0.302083" stop-color="#082528"/>
<stop offset="0.713542" stop-color="#28003D"/>
<stop offset="1" stop-color="#71196F"/>
</radialGradient>
<radialGradient id="paint6_radial" cx="0" cy="0" r="1" gradientUnits="userSpaceOnUse" gradientTransform="translate(437.007 276.705) rotate(142.674) scale(685.026 634.437)">
<stop/>
<stop offset="0.302083" stop-color="#082528"/>
<stop offset="0.713542" stop-color="#28003D"/>
<stop offset="1" stop-color="#71196F"/>
</radialGradient>
<radialGradient id="paint7_radial" cx="0" cy="0" r="1" gradientUnits="userSpaceOnUse" gradientTransform="translate(442.601 267.939) rotate(140.663) scale(626.18 591.207)">
<stop/>
<stop offset="0.302083" stop-color="#082528"/>
<stop offset="0.713542" stop-color="#28003D"/>
<stop offset="1" stop-color="#71196F"/>
</radialGradient>
<radialGradient id="paint8_radial" cx="0" cy="0" r="1" gradientUnits="userSpaceOnUse" gradientTransform="translate(447.413 259.194) rotate(138.227) scale(568.275 548.678)">
<stop/>
<stop offset="0.302083" stop-color="#082528"/>
<stop offset="0.713542" stop-color="#28003D"/>
<stop offset="1" stop-color="#71196F"/>
</radialGradient>
<radialGradient id="paint9_radial" cx="0" cy="0" r="1" gradientUnits="userSpaceOnUse" gradientTransform="translate(452.107 249.729) rotate(135.144) scale(509.189 505.988)">
<stop/>
<stop offset="0.302083" stop-color="#082528"/>
<stop offset="0.713542" stop-color="#28003D"/>
<stop offset="1" stop-color="#71196F"/>
</radialGradient>
<radialGradient id="paint10_radial" cx="0" cy="0" r="1" gradientUnits="userSpaceOnUse" gradientTransform="translate(455.397 239.892) rotate(132.343) scale(453.359 461.748)">
<stop/>
<stop offset="0.302083" stop-color="#082528"/>
<stop offset="0.713542" stop-color="#28003D"/>
<stop offset="1" stop-color="#71196F"/>
</radialGradient>
<radialGradient id="paint11_radial" cx="0" cy="0" r="1" gradientUnits="userSpaceOnUse" gradientTransform="translate(457.327 228.996) rotate(128.256) scale(395.905 417.851)">
<stop/>
<stop offset="0.302083" stop-color="#082528"/>
<stop offset="0.713542" stop-color="#28003D"/>
<stop offset="1" stop-color="#71196F"/>
</radialGradient>
<radialGradient id="paint12_radial" cx="0" cy="0" r="1" gradientUnits="userSpaceOnUse" gradientTransform="translate(458.006 217.378) rotate(122.997) scale(338.708 372.506)">
<stop/>
<stop offset="0.302083" stop-color="#082528"/>
<stop offset="0.713542" stop-color="#28003D"/>
<stop offset="1" stop-color="#71196F"/>
</radialGradient>
<radialGradient id="paint13_radial" cx="0" cy="0" r="1" gradientUnits="userSpaceOnUse" gradientTransform="translate(457.228 205.511) rotate(116.311) scale(283.09 325.769)">
<stop/>
<stop offset="0.302083" stop-color="#082528"/>
<stop offset="0.713542" stop-color="#28003D"/>
<stop offset="1" stop-color="#71196F"/>
</radialGradient>
<radialGradient id="paint14_radial" cx="0" cy="0" r="1" gradientUnits="userSpaceOnUse" gradientTransform="translate(457.471 195.75) rotate(109.325) scale(231.174 276.617)">
<stop/>
<stop offset="0.302083" stop-color="#082528"/>
<stop offset="0.713542" stop-color="#28003D"/>
<stop offset="1" stop-color="#71196F"/>
</radialGradient>
<radialGradient id="paint15_radial" cx="0" cy="0" r="1" gradientUnits="userSpaceOnUse" gradientTransform="translate(454.892 185.717) rotate(98.6198) scale(181.25 225.286)">
<stop/>
<stop offset="0.302083" stop-color="#082528"/>
<stop offset="0.713542" stop-color="#28003D"/>
<stop offset="1" stop-color="#71196F"/>
</radialGradient>
<radialGradient id="paint16_radial" cx="0" cy="0" r="1" gradientUnits="userSpaceOnUse" gradientTransform="translate(456.397 180.619) rotate(98.723) scale(133.786 166.11)">
<stop/>
<stop offset="0.302083" stop-color="#082528"/>
<stop offset="0.713542" stop-color="#28003D"/>
<stop offset="1" stop-color="#71196F"/>
</radialGradient>
<radialGradient id="paint17_radial" cx="0" cy="0" r="1" gradientUnits="userSpaceOnUse" gradientTransform="translate(456.354 177.765) rotate(98.9184) scale(84.9902 105.304)">
<stop/>
<stop offset="0.302083" stop-color="#082528"/>
<stop offset="0.713542" stop-color="#28003D"/>
<stop offset="1" stop-color="#71196F"/>
</radialGradient>
<radialGradient id="paint18_radial" cx="0" cy="0" r="1" gradientUnits="userSpaceOnUse" gradientTransform="translate(455.515 175.865) rotate(98.5695) scale(40.5965 50.4864)">
<stop/>
<stop offset="0.302083" stop-color="#082528"/>
<stop offset="0.713542" stop-color="#28003D"/>
<stop offset="1" stop-color="#71196F"/>
</radialGradient>
</defs>
</svg>
