<svg width="355" height="46" viewBox="0 0 287 37" fill="none" xmlns="http://www.w3.org/2000/svg">
<mask id="mask0" mask-type="alpha" maskUnits="userSpaceOnUse" x="0" y="0" width="287" height="37">
<path fill-rule="evenodd" clip-rule="evenodd" d="M99.0439 1.20465C99.0439 0.539341 99.5833 0 100.249 0H104.863C105.529 0 106.068 0.539341 106.068 1.20465V29.6655C106.068 30.3308 106.607 30.8701 107.273 30.8701H134.529C135.583 30.8701 136.129 32.1293 135.407 32.8987L131.919 36.6193C131.691 36.8622 131.373 37 131.04 37H106.068H100.249C99.5833 37 99.0439 36.4607 99.0439 35.7953V1.20465Z" fill="white"/>
<path fill-rule="evenodd" clip-rule="evenodd" d="M26.6137 22.0806H11.362C11.3609 22.0806 11.36 22.0798 11.36 22.0787C11.36 22.0776 11.3591 22.0767 11.358 22.0767C11.2594 22.0793 11.1604 22.0806 11.0611 22.0806C4.95222 22.0806 0 17.1377 0 11.0403C0 4.94292 4.95222 0 11.0611 0C11.1604 0 11.2594 0.00130588 11.358 0.00390136C11.3591 0.00393022 11.36 0.00304852 11.36 0.00195093C11.36 0.000873566 11.3609 0 11.362 0H34.5822C35.6793 0 36.2053 1.34717 35.3984 2.0906L30.2407 6.84259C30.0183 7.04752 29.7269 7.16129 29.4245 7.16129H11.0538C8.91146 7.16129 7.17476 8.89799 7.17476 11.0403C7.17476 13.1827 8.91146 14.9194 11.0538 14.9194H27.4846C27.4949 14.9194 27.5032 14.9277 27.5032 14.938C27.5032 14.9476 27.5108 14.9557 27.5204 14.9565C33.2017 15.4204 37.6675 20.1695 37.6675 25.9597C37.6675 32.0571 32.7153 37 26.6064 37C26.3108 37 26.0179 36.9884 25.7281 36.9657C25.7181 36.9649 25.7096 36.9728 25.7096 36.9828C25.7096 36.9923 25.7019 37 25.6924 37H2.66324C1.54428 37 1.02986 35.6074 1.88011 34.88L7.43452 30.128C7.65274 29.9413 7.93047 29.8387 8.21765 29.8387H16.2473H26.6137C28.756 29.8387 30.4927 28.102 30.4927 25.9597C30.4927 23.8173 28.756 22.0806 26.6137 22.0806Z" fill="white"/>
<path fill-rule="evenodd" clip-rule="evenodd" d="M55.8081 0C55.8063 0 55.8049 0.00145642 55.8049 0.00325301C55.8049 0.00499562 55.8035 0.00642929 55.8018 0.00650441C52.2447 0.159988 49.3883 3.01097 49.2345 6.56138C49.2345 6.56312 49.233 6.56452 49.2313 6.56452C49.2295 6.56452 49.228 6.56597 49.228 6.56777V29.8356C49.228 29.8373 49.2294 29.8387 49.2312 29.8387C49.2329 29.8387 49.2343 29.8402 49.2343 29.842C49.2301 29.9398 49.228 30.0382 49.228 30.1371C49.228 33.8263 52.1445 36.8357 55.8018 36.9935C55.8035 36.9936 55.8049 36.995 55.8049 36.9967C55.8049 36.9985 55.8063 37 55.8081 37H80.9133C80.9151 37 80.9166 36.9985 80.9166 36.9967C80.9166 36.995 80.9179 36.9936 80.9197 36.9935C84.5769 36.8357 87.4934 33.8263 87.4934 30.1371C87.4934 30.0382 87.4913 29.9398 87.4872 29.842C87.4871 29.8402 87.4885 29.8387 87.4903 29.8387C87.492 29.8387 87.4934 29.8373 87.4934 29.8356V6.56777C87.4934 6.56598 87.492 6.56452 87.4902 6.56452C87.4884 6.56452 87.487 6.56312 87.4869 6.56138C87.3331 3.01097 84.4768 0.159988 80.9197 0.00650442C80.9179 0.0064293 80.9166 0.00499562 80.9166 0.00325301C80.9166 0.00145642 80.9151 0 80.9133 0H55.8081ZM60.5154 6.56452C60.5143 6.56452 60.5134 6.56543 60.5134 6.56656C60.5134 6.56766 60.5125 6.56856 60.5114 6.56861C58.2882 6.66516 56.503 8.45852 56.4069 10.6918C56.4069 10.6929 56.406 10.6938 56.4049 10.6938C56.4037 10.6938 56.4028 10.6947 56.4028 10.6958V25.3321C56.4028 25.3332 56.4037 25.334 56.4048 25.334C56.4059 25.334 56.4068 25.335 56.4067 25.3361C56.4041 25.3976 56.4028 25.4595 56.4028 25.5217C56.4028 27.8424 58.2256 29.7353 60.5114 29.8346C60.5125 29.8347 60.5134 29.8356 60.5134 29.8367C60.5134 29.8378 60.5143 29.8387 60.5154 29.8387H76.2061C76.2072 29.8387 76.2082 29.8378 76.2082 29.8367C76.2082 29.8356 76.209 29.8347 76.2101 29.8346C78.4959 29.7353 80.3187 27.8424 80.3187 25.5217C80.3187 25.4595 80.3174 25.3976 80.3148 25.3361C80.3147 25.335 80.3156 25.334 80.3167 25.334C80.3178 25.334 80.3187 25.3332 80.3187 25.3321V10.6958C80.3187 10.6947 80.3178 10.6938 80.3167 10.6938C80.3156 10.6938 80.3147 10.6929 80.3146 10.6919C80.2185 8.45852 78.4333 6.66516 76.2101 6.56861C76.209 6.56856 76.2082 6.56766 76.2082 6.56656C76.2082 6.56543 76.2072 6.56452 76.2061 6.56452H60.5154Z" fill="white"/>
<path fill-rule="evenodd" clip-rule="evenodd" d="M155.954 10.1452V16.1018C155.954 16.7671 156.493 17.3065 157.158 17.3065H178.665C179.33 17.3065 179.869 16.7671 179.869 16.1018V10.1452C179.869 7.83804 177.996 5.96774 175.684 5.96774H160.139C157.827 5.96774 155.954 7.83804 155.954 10.1452ZM181.074 37C180.409 37 179.869 36.4607 179.869 35.7953V23.8821C179.869 23.2168 179.33 22.6774 178.665 22.6774H157.158C156.493 22.6774 155.954 23.2168 155.954 23.8821V35.7953C155.954 36.4607 155.414 37 154.749 37H149.983C149.318 37 148.779 36.4607 148.779 35.7953V7.16441C148.779 7.16269 148.78 7.16129 148.782 7.16129C148.784 7.16129 148.785 7.15981 148.785 7.15803C148.781 7.06017 148.779 6.96178 148.779 6.8629C148.779 3.07263 151.857 0 155.655 0C155.754 0 155.852 0.0020913 155.95 0.00623208C155.952 0.00630692 155.954 0.00489076 155.954 0.00311707C155.954 0.00139556 155.955 0 155.957 0H180.464C180.466 0 180.467 0.00145642 180.467 0.00325301C180.467 0.00499562 180.469 0.00642932 180.47 0.00650444C184.128 0.16431 187.044 3.17365 187.044 6.8629C187.044 6.96178 187.042 7.06017 187.038 7.15803C187.038 7.15981 187.039 7.16129 187.041 7.16129C187.043 7.16129 187.044 7.16269 187.044 7.16441V35.7953C187.044 36.4607 186.505 37 185.84 37H181.074Z" fill="white"/>
<path fill-rule="evenodd" clip-rule="evenodd" d="M255.768 10.1452V16.1018C255.768 16.7671 256.307 17.3065 256.972 17.3065H278.479C279.144 17.3065 279.683 16.7671 279.683 16.1018V10.1452C279.683 7.83804 277.81 5.96774 275.498 5.96774H259.953C257.641 5.96774 255.768 7.83804 255.768 10.1452ZM280.888 37C280.223 37 279.683 36.4607 279.683 35.7953V23.8821C279.683 23.2168 279.144 22.6774 278.479 22.6774H256.972C256.307 22.6774 255.768 23.2168 255.768 23.8821V35.7953C255.768 36.4607 255.228 37 254.563 37H249.797C249.132 37 248.593 36.4607 248.593 35.7953V7.16441C248.593 7.16269 248.594 7.16129 248.596 7.16129C248.598 7.16129 248.599 7.15981 248.599 7.15803C248.595 7.06017 248.593 6.96178 248.593 6.8629C248.593 3.07263 251.671 0 255.469 0C255.568 0 255.666 0.0020913 255.764 0.00623208C255.766 0.00630692 255.768 0.00489076 255.768 0.00311707C255.768 0.00139556 255.769 0 255.771 0H280.278C280.28 0 280.281 0.00145642 280.281 0.00325301C280.281 0.00499562 280.283 0.00642932 280.284 0.00650444C283.942 0.16431 286.858 3.17365 286.858 6.8629C286.858 6.96178 286.856 7.06017 286.852 7.15803C286.852 7.15981 286.853 7.16129 286.855 7.16129C286.857 7.16129 286.858 7.16269 286.858 7.16441V35.7953C286.858 36.4607 286.319 37 285.654 37H280.888Z" fill="white"/>
<path fill-rule="evenodd" clip-rule="evenodd" d="M206.221 0.422971C205.992 0.154589 205.657 0 205.305 0H199.89C199.225 0 198.686 0.539341 198.686 1.20465V35.7953C198.686 36.4607 199.225 37 199.89 37H204.656C205.321 37 205.861 36.4607 205.861 35.7953V12.7596C205.861 11.6466 207.241 11.1289 207.973 11.9672L229.765 36.9254C229.772 36.9336 229.776 36.9441 229.776 36.955C229.776 36.9799 229.797 37 229.821 37H229.83H235.747C236.412 37 236.951 36.4607 236.951 35.7953V1.20465C236.951 0.539341 236.412 0 235.747 0H230.981C230.316 0 229.776 0.539343 229.776 1.20465V24.7748C229.776 25.8947 228.382 26.4086 227.655 25.5565L206.221 0.422971Z" fill="white"/>
</mask>
<g mask="url(#mask0)">
<path d="M-11.0955 -18.6721L299.532 -25.4697V82.9489L-18.9258 47.4977L-11.0955 -18.6721Z" fill="url(#paint0_linear)"/>
</g>
<defs>
<linearGradient id="paint0_linear" x1="238.895" y1="-22.4106" x2="216.229" y2="109.724" gradientUnits="userSpaceOnUse">
<stop stop-color="#02FFAD"/>
<stop offset="1" stop-color="#F71DF4"/>
</linearGradient>
</defs>
</svg>
