<svg width="102" height="136" viewBox="0 0 102 136" fill="none" xmlns="http://www.w3.org/2000/svg">
<mask id="mask0" mask-type="alpha" maskUnits="userSpaceOnUse" x="0" y="0" width="102" height="136">
<rect width="102" height="136" fill="#1B1B1B"/>
</mask>
<g mask="url(#mask0)">
<path opacity="0.05" fill-rule="evenodd" clip-rule="evenodd" d="M47.1923 113.731C34.3688 104.096 26.6666 89.0173 26.6666 72.6667C26.6666 44.3161 49.6493 21.3334 78 21.3334C106.351 21.3334 129.333 44.3161 129.333 72.6667C129.333 89.0173 121.631 104.096 108.808 113.731L107.562 114.667H48.4377L47.1923 113.731ZM104.401 105.333C114.181 97.4234 120 85.5327 120 72.6667C120 49.4707 101.196 30.6667 78 30.6667C54.804 30.6667 36 49.4707 36 72.6667C36 85.5327 41.8192 97.4234 51.5984 105.333H104.401ZM102.823 47.3428L95.1768 41.9905L82.8893 59.5442C81.3672 58.9768 79.7198 58.6667 78 58.6667C70.268 58.6667 64 64.9347 64 72.6667C64 80.3987 70.268 86.6667 78 86.6667C85.7319 86.6667 92 80.3987 92 72.6667C92 70.0746 91.2955 67.6469 90.0675 65.5649L102.823 47.3428ZM82.6666 72.6667C82.6666 75.244 80.5773 77.3334 78 77.3334C75.4226 77.3334 73.3333 75.244 73.3333 72.6667C73.3333 70.0894 75.4226 68 78 68C80.5773 68 82.6666 70.0894 82.6666 72.6667Z" fill="white"/>
</g>
</svg>
