<svg width="102" height="136" viewBox="0 0 102 136" fill="none" xmlns="http://www.w3.org/2000/svg">
<mask id="mask0" mask-type="alpha" maskUnits="userSpaceOnUse" x="0" y="0" width="102" height="136">
<rect width="102" height="136" fill="#1B1B1B"/>
</mask>
<g mask="url(#mask0)">
<g opacity="0.05">
<path fill-rule="evenodd" clip-rule="evenodd" d="M54.8975 69.7308L48.7692 63.6025L33.6025 78.7692L39.7308 84.8975L54.8975 69.7308ZM105.103 69.7308L111.231 63.6025L126.397 78.7692L120.269 84.8975L105.103 69.7308ZM80 153.333C56.0677 153.333 36.6667 133.932 36.6667 110C36.6667 86.0678 56.0677 66.6668 80 66.6668C103.932 66.6668 123.333 86.0678 123.333 110C123.333 133.932 103.932 153.333 80 153.333ZM80 144.667C99.1459 144.667 114.667 129.146 114.667 110C114.667 90.8543 99.1459 75.3335 80 75.3335C60.8541 75.3335 45.3333 90.8543 45.3333 110C45.3333 129.146 60.8541 144.667 80 144.667ZM101.667 105.667H84.3333V84.0002H75.6667V114.333H101.667V105.667Z" fill="white"/>
</g>
</g>
</svg>
