<svg width="102" height="136" viewBox="0 0 102 136" fill="none" xmlns="http://www.w3.org/2000/svg">
<mask id="mask0" mask-type="alpha" maskUnits="userSpaceOnUse" x="0" y="0" width="102" height="136">
<rect width="102" height="136" fill="#1B1B1B"/>
</mask>
<g mask="url(#mask0)">
<g opacity="0.05">
<path fill-rule="evenodd" clip-rule="evenodd" d="M54.8975 27.7307L48.7692 21.6024L33.6025 36.7691L39.7308 42.8973L54.8975 27.7307ZM105.103 27.7307L111.231 21.6024L126.397 36.7691L120.269 42.8973L105.103 27.7307ZM80 111.333C56.0677 111.333 36.6667 91.9324 36.6667 68C36.6667 44.0677 56.0677 24.6667 80 24.6667C103.932 24.6667 123.333 44.0677 123.333 68C123.333 91.9324 103.932 111.333 80 111.333ZM80 102.667C99.1459 102.667 114.667 87.1459 114.667 68C114.667 48.8541 99.1459 33.3334 80 33.3334C60.8541 33.3334 45.3333 48.8541 45.3333 68C45.3333 87.1459 60.8541 102.667 80 102.667ZM101.667 63.6667H84.3333V42H75.6667V72.3334H101.667V63.6667Z" fill="white"/>
</g>
</g>
</svg>
