<svg width="102" height="136" viewBox="0 0 102 136" fill="none" xmlns="http://www.w3.org/2000/svg">
<g clip-path="url(#clip0)">
<g opacity="0.05">
<path fill-rule="evenodd" clip-rule="evenodd" d="M81.7435 58.7867L116.296 77.9827C120.83 80.5013 120.83 86.1666 116.296 88.6852L110.48 91.9164L116.296 95.1475C120.83 97.6661 120.83 103.331 116.296 105.85L110.479 109.082L116.296 112.314C120.83 114.833 120.83 120.498 116.296 123.017L81.7435 142.213C78.857 143.816 74.7026 143.816 71.8162 142.213L37.2633 123.017C32.7298 120.498 32.7298 114.833 37.2633 112.314L43.081 109.082L37.2633 105.85C32.7298 103.331 32.7298 97.6661 37.2633 95.1475L43.0793 91.9164L37.2633 88.6852C32.7298 86.1666 32.7298 80.5013 37.2633 77.9827L71.8162 58.7867C74.7026 57.1831 78.857 57.1831 81.7435 58.7867ZM81.7435 107.881L101.643 96.8259L108.254 100.499L101.642 104.173L92.8045 109.082L77.575 117.543C77.2809 117.706 76.2787 117.706 75.9846 117.543L60.7552 109.082L51.9181 104.173L45.3052 100.499L51.9164 96.8259L71.8162 107.881C74.7026 109.485 78.857 109.485 81.7435 107.881ZM51.9181 113.992L45.3052 117.665L75.9846 134.71C76.2787 134.873 77.2809 134.873 77.575 134.71L108.254 117.665L101.642 113.992L81.7435 125.046C78.857 126.65 74.7026 126.65 71.8162 125.046L51.9181 113.992ZM75.9843 66.2898C76.2784 66.1265 77.2807 66.1265 77.5747 66.2898L108.254 83.334L77.5747 100.378C77.2807 100.541 76.2784 100.541 75.9843 100.378L45.3049 83.334L75.9843 66.2898Z" fill="white"/>
</g>
</g>
<defs>
<clipPath id="clip0">
<rect width="102" height="136" fill="white"/>
</clipPath>
</defs>
</svg>
