<svg width="102" height="136" viewBox="0 0 102 136" fill="none" xmlns="http://www.w3.org/2000/svg">
<mask id="mask0" mask-type="alpha" maskUnits="userSpaceOnUse" x="0" y="0" width="102" height="136">
<rect width="102" height="136" fill="#1B1B1B"/>
</mask>
<g mask="url(#mask0)">
<g opacity="0.05">
<path fill-rule="evenodd" clip-rule="evenodd" d="M84.6667 136.667V131.669C93.9231 130.345 101.928 125.141 106.98 117.757C119.645 116.011 126.667 105.04 126.667 89.9999V75.9999C126.667 70.8453 122.488 66.6666 117.333 66.6666H111.418C109.804 63.8769 106.788 62 103.333 62H56.6667C53.2121 62 50.1958 63.8769 48.582 66.6666H42.6667C37.512 66.6666 33.3334 70.8453 33.3334 75.9999V89.9999C33.3334 105.04 40.3548 116.011 53.0204 117.757C58.0724 125.141 66.077 130.345 75.3334 131.669V136.667H70.6667C65.5121 136.667 61.3334 140.845 61.3334 146H98.6667C98.6667 140.845 94.488 136.667 89.3334 136.667H84.6667ZM42.6667 75.9999H47.3334V99.3333C47.3334 101.469 47.5384 103.558 47.9299 105.58C44.488 102.482 42.6667 97.1458 42.6667 89.9999V75.9999ZM112.667 75.9999V99.3333C112.667 101.469 112.462 103.558 112.07 105.58C115.512 102.482 117.333 97.1458 117.333 89.9999V75.9999H112.667ZM56.6667 99.3334V71.3334H103.333V99.3334C103.333 112.22 92.8867 122.667 80 122.667C67.1134 122.667 56.6667 112.22 56.6667 99.3334Z" fill="white"/>
</g>
</g>
</svg>
