<svg width="102" height="136" viewBox="0 0 102 136" fill="none" xmlns="http://www.w3.org/2000/svg">
<mask id="mask0" mask-type="alpha" maskUnits="userSpaceOnUse" x="0" y="0" width="102" height="136">
<rect width="102" height="136" fill="#1B1B1B"/>
</mask>
<g mask="url(#mask0)">
<path opacity="0.05" fill-rule="evenodd" clip-rule="evenodd" d="M47.1923 154.731C34.3688 145.096 26.6666 130.017 26.6666 113.666C26.6666 85.3157 49.6493 62.333 78 62.333C106.351 62.333 129.333 85.3157 129.333 113.666C129.333 130.017 121.631 145.096 108.808 154.731L107.562 155.666H48.4377L47.1923 154.731ZM104.401 146.333C114.181 138.423 120 126.532 120 113.666C120 90.4704 101.196 71.6663 78 71.6663C54.804 71.6663 36 90.4704 36 113.666C36 126.532 41.8192 138.423 51.5984 146.333H104.401ZM102.823 88.3424L95.1768 82.9901L82.8893 100.544C81.3672 99.9764 79.7198 99.6663 78 99.6663C70.268 99.6663 64 105.934 64 113.666C64 121.398 70.268 127.666 78 127.666C85.7319 127.666 92 121.398 92 113.666C92 111.074 91.2955 108.647 90.0675 106.565L102.823 88.3424ZM82.6666 113.666C82.6666 116.244 80.5773 118.333 78 118.333C75.4226 118.333 73.3333 116.244 73.3333 113.666C73.3333 111.089 75.4226 109 78 109C80.5773 109 82.6666 111.089 82.6666 113.666Z" fill="white"/>
</g>
</svg>
