<?xml version="1.0" encoding="UTF-8"?>
<svg xmlns="http://www.w3.org/2000/svg" viewBox="0 0 1133.18 1133.18">
    <defs>
        <style>
            .cls-1,.cls-10,.cls-11,.cls-14,.cls-2,.cls-4,.cls-5,.cls-6,.cls-7,.cls-8{fill:none;}.cls-1,.cls-8,.cls-9{fill-rule:evenodd;}.cls-14,.cls-2,.cls-8{stroke:#00ffad;}.cls-10,.cls-2,.cls-4,.cls-5{stroke-linecap:round;stroke-linejoin:round;}.cls-10,.cls-11,.cls-2,.cls-4,.cls-5,.cls-6,.cls-8{stroke-width:1.5px;}.cls-3,.cls-9{fill:#00ffad;}.cls-4{stroke:#70c5a0;}.cls-10,.cls-11,.cls-5,.cls-6{stroke:#fff;}.cls-11,.cls-14,.cls-6,.cls-8{stroke-miterlimit:10;}.cls-10,.cls-6{stroke-dasharray:5
            5;}.cls-12{fill:#fff;}.cls-13{opacity:0.5;}
        </style>
    </defs>
    <title>hero</title>
    <g id="Layer_2" data-name="Layer 2">
        <g id="Layer_1-2" data-name="Layer 1">
            <path class="cls-1" d="M729.76,362.5a4,4,0,1,0-5.62-.25,4,4,0,0,0,5.62.25"></path>
            <path class="cls-1" d="M435.56,700.38a3.57,3.57,0,1,0-5-.13,3.56,3.56,0,0,0,5,.13"></path>
            <path class="cls-1" d="M457.61,822.87a4.75,4.75,0,1,1,2.32,6.3,4.76,4.76,0,0,1-2.32-6.3"></path>
            <path class="cls-1" d="M276.72,1065.2a4.75,4.75,0,1,0,6.3-2.33,4.74,4.74,0,0,0-6.3,2.33"></path>
            <g id="circle5">
                <path class="cls-2"
                      d="M222.92,836.43c-1.65-2.09-3.32-4.15-4.93-6.27l-4.67-6.46-4.65-6.47c-1.55-2.16-3.11-4.32-4.53-6.56l-11.39,7.63c1.46,2.32,3.07,4.54,4.67,6.77l4.79,6.68,4.82,6.66c1.67,2.18,3.39,4.31,5.09,6.47Z"></path>
                <path class="cls-2" d="M262.25,871.88q10.56,10.56,21.84,20.36l9-10.41q-11.08-9.62-21.46-20Z"></path>
                <path class="cls-2"
                      d="M262.85,852.74a409.89,409.89,0,0,1-29.19-34.61,417.76,417.76,0,0,1-44.8-74.92L176.45,749a431.48,431.48,0,0,0,46.28,77.38,423.46,423.46,0,0,0,29.9,35.49Z"></path>
                <polygon class="cls-3"
                         points="176.8 715.22 175.96 713.08 175.2 710.91 173.69 706.57 170.69 697.89 157.61 702.21 160.7 711.18 162.26 715.66 163.05 717.89 163.92 720.1 176.8 715.22"></polygon>
                <path class="cls-2"
                      d="M211.5,854.19l-7.42-9.35-1.84-2.34-1.76-2.41L197,835.25l-6.94-9.71q-.88-1.2-1.68-2.46l-1.63-2.5-3.25-5L172,823l3.35,5.15,1.67,2.58c.56.86,1.13,1.71,1.73,2.53l7.15,10,3.6,5,1.81,2.49,1.9,2.41,7.64,9.64Z"></path>
                <path class="cls-2"
                      d="M177.73,765.89l-3.61-7c-1.14-2.38-2.22-4.79-3.33-7.19l-3.28-7.21c-1.07-2.42-2.23-4.79-3.17-7.26l-12.59,5.34c1,2.54,2.17,5,3.27,7.48l3.38,7.44c1.14,2.47,2.26,5,3.43,7.42l3.73,7.27Z"></path>
                <path class="cls-2"
                      d="M160.76,727.92a444.55,444.55,0,0,1-21.53-72l-13.42,2.82A458.3,458.3,0,0,0,148,733Z"></path>
                <path class="cls-2"
                      d="M198.57,802.19l-4.27-6.66-4-6.83-4-6.85c-1.3-2.29-2.67-4.55-3.84-6.9l-12,6.48c1.22,2.43,2.63,4.76,4,7.12l4.09,7.06,4.11,7,4.41,6.87Z"></path>
                <path class="cls-2"
                      d="M191.47,860.74c-1.79-2.26-3.61-4.51-5.36-6.81l-5.09-7-5.06-7c-1.68-2.34-3.37-4.69-4.92-7.12l-11.33,7.58c1.59,2.5,3.33,4.91,5.06,7.32l5.2,7.24,5.24,7.21c1.8,2.36,3.67,4.67,5.51,7Z"></path>
                <path class="cls-2"
                      d="M142.83,784.11l-4-7.69c-1.26-2.6-2.45-5.22-3.67-7.83l-3.62-7.87c-1.18-2.63-2.45-5.22-3.5-7.91l-12.6,5.29c1.08,2.76,2.39,5.43,3.6,8.13l3.72,8.09c1.25,2.69,2.48,5.39,3.78,8.06l4.08,7.91Z"></path>
                <path class="cls-3"
                      d="M338.81,962.48l-14.18-8.64-3.54-2.18c-1.17-.73-2.36-1.43-3.5-2.23l-6.88-4.68L303,956.17l7.09,4.81c1.17.82,2.4,1.54,3.61,2.3l3.64,2.24,14.6,8.9Z"></path>
                <path class="cls-4"
                      d="M98.29,655.13l-1.63-8.46c-.51-2.83-.89-5.68-1.33-8.52l-1.25-8.53-.61-4.27-.3-2.14-.23-2.14-13.59,1.51.23,2.21.31,2.19.63,4.39,1.29,8.78c.45,2.92.84,5.85,1.37,8.76l1.67,8.71Z"></path>
                <path class="cls-2"
                      d="M652,143.88l-2.72,13.44a417.64,417.64,0,0,0-142.48-3.81l-1.9-13.57A431.71,431.71,0,0,1,652,143.88Z"></path>
                <path class="cls-2"
                      d="M362,202.86c4-2.43,8.25-4.5,12.41-6.69l6.27-3.23,3.13-1.62,3.2-1.48L399.8,184c2.12-1,4.31-1.86,6.48-2.74l6.54-2.63,6.54-2.62c1.08-.45,2.19-.84,3.3-1.22l3.32-1.17L439.29,169c4.49-1.37,9-2.68,13.5-4,2.26-.65,4.5-1.34,6.77-1.95l6.83-1.68L463.1,148,456,149.78c-2.34.62-4.66,1.34-7,2-4.65,1.37-9.31,2.72-13.94,4.14l-13.75,4.76-3.43,1.2c-1.14.4-2.29.8-3.41,1.27l-6.75,2.7L401,168.57c-2.25.91-4.51,1.8-6.7,2.84l-13.23,6.06L377.8,179l-3.24,1.67L368.1,184c-4.3,2.25-8.66,4.4-12.82,6.9Z"></path>
                <path class="cls-2"
                      d="M392.05,166.23c2.39-1.14,4.85-2.08,7.29-3.08l7.35-3,7.35-2.93,7.47-2.62L417,141.74l-7.7,2.71-7.58,3-7.57,3.06c-2.52,1-5.06,2-7.52,3.18Z"></path>
                <path class="cls-5"
                      d="M431.21,151.11c2.49-.91,5-1.62,7.57-2.38l7.6-2.25,7.61-2.22,7.69-1.9-3.28-13.29-7.93,2-7.85,2.28-7.84,2.32c-2.6.79-5.23,1.53-7.79,2.46Z"></path>
                <path class="cls-2"
                      d="M384.19,147.76c2.49-1.18,5.07-2.15,7.63-3.2l7.67-3.07,7.7-3,7.81-2.72-4.56-12.88-8,2.81-7.92,3.11L386.57,132c-2.63,1.07-5.29,2.08-7.86,3.29Z"></path>
                <path class="cls-2"
                      d="M352.71,185.9l3.47-2c1.15-.68,2.35-1.25,3.52-1.87l7.09-3.68,7.11-3.64,1.78-.91,1.8-.84,3.63-1.67-5.88-12.46-3.74,1.72-1.86.87-1.84.93-7.32,3.76-7.31,3.79c-1.21.65-2.45,1.24-3.64,1.93l-3.57,2Z"></path>
                <path class="cls-2"
                      d="M405.1,987.64l13,4.73,6.51,2.32,6.61,2,13.23,4c1.1.35,2.22.63,3.33.91l3.35.87,6.71,1.7,6.71,1.68c1.12.27,2.23.58,3.36.81l3.39.7,13.56,2.72,2.45-13.38-13.15-2.65-3.28-.67c-1.1-.22-2.17-.52-3.26-.78l-6.51-1.64-6.5-1.65-3.24-.83c-1.09-.27-2.17-.55-3.24-.89l-12.82-3.92-6.41-2-6.31-2.26L410,975Z"></path>
                <path class="cls-2"
                      d="M840.48,251.43A412.3,412.3,0,0,1,945.1,390.33l12.42-5.8a432.61,432.61,0,0,0-46.36-77.47,428.12,428.12,0,0,0-61.71-66Z"></path>
                <path class="cls-2"
                      d="M809.46,226.72c2.1,1.39,4.09,2.93,6.09,4.45l6,4.56,6,4.59c2,1.53,3.87,3.21,5.81,4.81l8.7-10.54c-2-1.65-4-3.38-6-5l-6.2-4.73-6.2-4.72c-2.07-1.56-4.13-3.16-6.29-4.59Z"></path>
                <path class="cls-3"
                      d="M820.39,210.81c2.2,1.45,4.29,3.07,6.4,4.66l6.32,4.78,6.3,4.8c2.09,1.61,4.08,3.36,6.12,5l8.64-10.41c-2.11-1.73-4.16-3.53-6.32-5.2l-6.49-4.95-6.52-4.93c-2.17-1.64-4.33-3.3-6.6-4.81Z"></path>
                <path class="cls-5"
                      d="M674,163.61c4.93,1.15,9.73,2.76,14.58,4.2s9.7,2.87,14.43,4.67l4.48-12.93c-4.88-1.85-9.92-3.26-14.91-4.82s-10-3.15-15.06-4.34Z"></path>
                <path class="cls-5"
                      d="M554.78,130c2.64-.16,5.29-.1,7.93-.12h7.94l8,.05,7.93.37.61-13.67-8.19-.39-8.19,0h-8.19c-2.73,0-5.46,0-8.18.12Z"></path>
                <path class="cls-5"
                      d="M646,137.05l13.19,2.64,3.29.67c1.1.23,2.18.53,3.27.79l6.53,1.63,6.52,1.65,3.26.84c1.09.27,2.17.55,3.24.89l12.87,3.92,6.42,2,6.34,2.26,12.63,4.58c2.12.73,4.16,1.67,6.24,2.51L736,164l6.19,2.61,3.09,1.31c1,.44,2,1,3,1.42L754,156.9c-1-.49-2.07-1-3.13-1.47l-3.19-1.35-6.38-2.69-6.39-2.68c-2.14-.86-4.24-1.82-6.43-2.58l-13-4.73-6.53-2.32L702.29,137,689,133c-1.1-.35-2.22-.64-3.35-.92l-3.36-.86-6.72-1.71-6.74-1.68c-1.12-.27-2.24-.57-3.37-.81l-3.4-.69-13.61-2.72Z"></path>
                <path class="cls-5"
                      d="M684.18,125.41c5.4,1.27,10.66,3,16,4.6s10.63,3.16,15.81,5.11l4.47-12.93c-5.33-2-10.83-3.57-16.28-5.27s-10.89-3.42-16.45-4.74Z"></path>
                <path class="cls-5" d="M562.51,110.11q8.31,0,16.6,0l.36-13.68c-5.7,0-11.4-.06-17.1-.06Z"></path>
                <path class="cls-5"
                      d="M689.26,106.34c5.63,1.34,11.12,3.14,16.66,4.8s11.08,3.31,16.49,5.35l4.48-12.94c-5.57-2.09-11.29-3.72-17-5.49s-11.35-3.56-17.14-4.94Z"></path>
                <path class="cls-5"
                      d="M644.61,96.72l4.28.66,4.26.83,8.5,1.69,8.51,1.73c1.42.27,2.82.63,4.22,1l4.21,1.05,3.21-13.3-4.33-1.08c-1.44-.35-2.88-.72-4.35-1l-8.74-1.78-8.76-1.74-4.38-.85-4.4-.69Z"></path>
                <path class="cls-5"
                      d="M553.66,90.51c2.88-.16,5.76-.11,8.65-.13H571l8.66,0,8.65.41.61-13.68-8.9-.41-8.91-.05h-8.91c-3,0-5.94,0-8.9.13Z"></path>
                <path class="cls-5"
                      d="M354.3,926.05l-9-5.52-4.51-2.77c-1.51-.92-2.94-2-4.41-2.94l-7.55,11.41c1.52,1,3,2.09,4.55,3l4.66,2.86,9.32,5.7Z"></path>
                <path class="cls-5"
                      d="M137.33,647.87l-1.48-7.79c-.46-2.61-.79-5.23-1.19-7.84l-1.12-7.86-.56-3.92-.27-2-.2-2-13.6,1.56.21,2,.28,2,.57,4.05,1.16,8.1c.41,2.69.75,5.4,1.23,8.08l1.52,8Z"></path>
                <path class="cls-5"
                      d="M324.66,906.85c-2.11-1.39-4.1-2.94-6.12-4.46l-6-4.59-6-4.6c-2-1.54-3.89-3.22-5.84-4.83l-8.72,10.55c2,1.66,4,3.39,6,5l6.23,4.75,6.23,4.73c2.08,1.58,4.15,3.17,6.32,4.61Z"></path>
                <path class="cls-5"
                      d="M116.36,643.39c-.89-5.45-1.63-10.93-2.42-16.4l-13.57,1.81c.81,5.63,1.58,11.27,2.5,16.89Z"></path>
                <path class="cls-5"
                      d="M313.23,922.93c-2.2-1.46-4.3-3.08-6.41-4.68l-6.32-4.8-6.31-4.82c-2.09-1.62-4.08-3.37-6.12-5.06l-8.72,10.55c2.11,1.74,4.16,3.55,6.32,5.22l6.5,5,6.52,5c2.18,1.64,4.34,3.31,6.61,4.82Z"></path>
                <path class="cls-5"
                      d="M111.92,608.3l-.76-8.26c-.24-2.75-.31-5.52-.47-8.28l-.38-8.29-.18-4.14c-.06-1.38-.13-2.76-.11-4.15l-13.68.26c0,1.42,0,2.85.11,4.27l.18,4.27.4,8.53c.16,2.84.24,5.69.48,8.53l.78,8.5Z"></path>
                <path class="cls-5"
                      d="M296.46,248.91c1-.83,1.89-1.68,2.87-2.48l3-2.37,5.93-4.73,6-4.71c2-1.55,4.08-3,6.12-4.48l-8.08-11c-2.11,1.54-4.26,3-6.32,4.62l-6.15,4.87-6.13,4.88-3.06,2.45c-1,.83-2,1.71-3,2.56Z"></path>
                <path class="cls-5"
                      d="M328.14,224.57l3.09-2.2c1-.72,2.11-1.39,3.17-2.08l6.36-4.13,6.38-4.1c1.05-.7,2.14-1.34,3.24-2l3.27-1.91-7-11.77-3.38,2c-1.13.65-2.26,1.31-3.35,2l-6.58,4.23-6.57,4.26c-1.1.72-2.2,1.42-3.28,2.15l-3.19,2.28Z"></path>
                <path class="cls-5"
                      d="M316.85,208.35l3.23-2.31c1.09-.75,2.21-1.45,3.32-2.18l6.67-4.32,6.67-4.3c1.11-.73,2.25-1.4,3.4-2.06l3.43-2-7-11.77-3.53,2.06c-1.18.68-2.36,1.37-3.5,2.13L322.66,188l-6.87,4.46c-1.14.75-2.3,1.48-3.43,2.25L309,197.11Z"></path>
                <path class="cls-5"
                      d="M449.52,1008.55c-5.4-1.28-10.66-3-16-4.6s-10.63-3.16-15.81-5.12l-4.47,12.93c5.33,2,10.83,3.57,16.28,5.27s10.89,3.42,16.45,4.74Z"></path>
                <path class="cls-5"
                      d="M537.11,1003.11c-2.65-.09-5.29-.37-7.92-.63l-7.91-.78-7.91-.8c-2.62-.34-5.24-.75-7.87-1.13l-1.91,13.55c2.7.39,5.4.81,8.11,1.16l8.16.83,8.15.81c2.73.26,5.44.54,8.17.65Z"></path>
                <path class="cls-5" d="M571.19,1023.85c-5.54,0-11.07,0-16.6-.06l-.36,13.68q8.55.08,17.1.06Z"></path>
                <path class="cls-5"
                      d="M489.09,1037.24l-4.28-.67-4.26-.83-8.51-1.68-8.5-1.73c-1.42-.27-2.82-.63-4.22-1l-4.21-1-3.21,13.31,4.33,1.07c1.44.36,2.88.73,4.35,1l8.74,1.78,8.75,1.73,4.38.85,4.41.69Z"></path>
                <path class="cls-5"
                      d="M535.78,1022.8c-2.77-.11-5.53-.39-8.28-.66l-8.27-.82-8.26-.84c-2.75-.36-5.49-.78-8.23-1.18l-1.92,13.55c2.83.41,5.65.84,8.48,1.21l8.51.87,8.51.84c2.84.28,5.68.57,8.53.68Z"></path>
                <path class="cls-5"
                      d="M580,1043.44c-2.88.17-5.77.12-8.65.13h-8.66l-8.66-.06-8.65-.4-.61,13.67,8.9.41,8.91.06h8.91c3,0,5.94,0,8.9-.14Z"></path>
                <path class="cls-5"
                      d="M982.1,609l-.76,7.55-.2,1.88-.26,1.88-.56,3.76c-.74,5-1.47,10-2.26,15l13.48,2.36c.82-5.16,1.58-10.33,2.34-15.5l.57-3.87.28-1.94.2-2,.78-7.8Z"></path>
                <path class="cls-5"
                      d="M911,297.44c1.64,2.08,3.3,4.15,4.91,6.25l4.65,6.45,4.63,6.46c1.55,2.15,3.1,4.3,4.51,6.54l11.36-7.63c-1.45-2.31-3-4.52-4.64-6.75l-4.78-6.66-4.8-6.64c-1.66-2.18-3.37-4.3-5.06-6.45Z"></path>
                <path class="cls-5"
                      d="M779.4,207.9l9,5.52,4.51,2.78c1.51.91,2.94,2,4.41,2.93l7.55-11.41c-1.52-1-3-2.08-4.55-3l-4.65-2.87-9.33-5.7Z"></path>
                <polygon class="cls-5"
                         points="957.1 418.79 957.94 420.91 958.69 423.06 960.2 427.38 963.18 436 976.17 431.71 973.09 422.8 971.54 418.35 970.76 416.13 969.9 413.94 957.1 418.79"></polygon>
                <path class="cls-5"
                      d="M922,279.53l7.44,9.38,1.85,2.35,1.76,2.42,3.51,4.85,7,9.73c.58.81,1.14,1.63,1.68,2.47l1.63,2.51,3.25,5,11.49-7.44-3.35-5.17-1.69-2.58c-.55-.86-1.13-1.71-1.73-2.54l-7.17-10-3.61-5L942.22,283l-1.91-2.43-7.66-9.65Z"></path>
                <path class="cls-5"
                      d="M956,367.86l3.63,7.06c1.14,2.39,2.22,4.8,3.34,7.2l3.3,7.22c1.07,2.41,2.24,4.79,3.19,7.26l12.6-5.32c-1-2.55-2.18-5-3.29-7.5l-3.4-7.44c-1.14-2.47-2.27-5-3.44-7.42l-3.74-7.28Z"></path>
                <path class="cls-5"
                      d="M973.21,405.94A443.47,443.47,0,0,1,994.8,477.8l13.4-2.8a458.18,458.18,0,0,0-22.26-74.1Z"></path>
                <path class="cls-5"
                      d="M935.22,331.57l4.29,6.69,4,6.85,4,6.88c1.31,2.3,2.68,4.56,3.86,6.93l12-6.5c-1.22-2.44-2.63-4.78-4-7.15l-4.11-7.09-4.13-7.07-4.43-6.9Z"></path>
                <path class="cls-5"
                      d="M942.1,273.1c1.79,2.27,3.6,4.52,5.35,6.82l5.08,7,5.05,7c1.68,2.35,3.37,4.7,4.91,7.14l11.37-7.63c-1.59-2.51-3.33-4.92-5.06-7.34l-5.19-7.25-5.23-7.22c-1.8-2.37-3.66-4.69-5.5-7Z"></path>
                <path class="cls-5"
                      d="M991.14,349.91l3.94,7.71c1.25,2.59,2.44,5.22,3.65,7.84l3.59,7.87c1.18,2.63,2.44,5.23,3.48,7.92l12.61-5.33c-1.08-2.76-2.37-5.44-3.58-8.15l-3.69-8.09c-1.25-2.69-2.47-5.39-3.76-8.07l-4.06-7.92Z"></path>
                <path class="cls-5"
                      d="M795.27,171.34,809.39,180l3.52,2.17c1.17.73,2.35,1.42,3.49,2.22l6.85,4.65,7.67-11.33-7.06-4.79c-1.16-.82-2.38-1.54-3.59-2.29l-3.62-2.23-14.54-8.86Z"></path>
                <path class="cls-2"
                      d="M596.78,130.6c2.66.1,5.3.37,8,.63l7.93.79,7.93.82c2.64.34,5.26.75,7.89,1.13l1.92-13.57c-2.72-.4-5.43-.82-8.15-1.17l-8.18-.85-8.18-.81c-2.73-.27-5.45-.55-8.19-.66Z"></path>
                <path class="cls-3"
                      d="M598.13,111.06c2.76.1,5.5.38,8.25.64l8.23.8,8.22.83c2.74.35,5.46.77,8.19,1.16L633,101c-2.81-.4-5.62-.83-8.43-1.19L616,98.92l-8.48-.82c-2.82-.27-5.65-.56-8.49-.66Z"></path>
                <path class="cls-2"
                      d="M955.5,806.26c-1.37,2.39-2.94,4.67-4.44,7l-4.55,6.9L941.93,827l-4.86,6.69,11.1,8,5-6.89,4.72-7.09,4.69-7.11c1.54-2.38,3.15-4.73,4.56-7.19Z"></path>
                <path class="cls-3" d="M830.61,939q-6.81,4.74-13.66,9.43l7.52,11.44q7.06-4.82,14.07-9.72Z"></path>
                <path class="cls-5"
                      d="M976.19,718.07l-1.34,3.74c-.47,1.24-1,2.46-1.48,3.68l-3,7.36-3,7.34c-.49,1.23-1,2.43-1.6,3.63l-1.67,3.6,12.45,5.68,1.72-3.72c.58-1.23,1.15-2.47,1.66-3.74l3.13-7.57,3.09-7.59c.51-1.27,1-2.52,1.53-3.8l1.38-3.86Z"></path>
                <path class="cls-2"
                      d="M790.78,941.75c-2.24,1.43-4.57,2.72-6.89,4l-7,3.89-7,3.85c-2.35,1.23-4.75,2.39-7.13,3.58L769,969.32c2.45-1.23,4.92-2.43,7.35-3.69l7.2-4,7.18-4c2.39-1.33,4.79-2.66,7.1-4.13Z"></path>
                <path class="cls-6" d="M772.78,997.17a474.11,474.11,0,0,1-88.68,32.13"></path>
                <path class="cls-6" d="M1026.82,693.5a475.32,475.32,0,0,1-74.08,153.67"></path>
                <path class="cls-7"
                      d="M472.74,1048.23a490.82,490.82,0,0,1-7.15-962,490.82,490.82,0,0,1,202,960.64A487.52,487.52,0,0,1,472.74,1048.23Z"></path>
            </g>
            <path class="cls-1" d="M424.79,324.8a3.56,3.56,0,1,1-1.21,4.89,3.57,3.57,0,0,1,1.21-4.89"></path>
            <g id="circle1">
                <path class="cls-5"
                      d="M448.49,704c-.79-.62-1.48-1.26-2.16-1.89l-2.81-2.6-2.39-2.17c-.57-.52-1.07-1-1.56-1.55l-.81-.83-1.84-1.82,9.55-9.59,1.84,1.83.82.84c.44.46.86.89,1.28,1.28l2.28,2.07,2.28,2.1.4.38c.6.55,1.16,1.08,1.75,1.54l2.15,1.67-8.84,10.26Z"></path>
                <path class="cls-2"
                      d="M625.38,723.75l6-2.31c.28-.1.61-.25.95-.41l.56-.25,1.65-.75,3.39-1.52.64-.29c.33-.14.63-.27.9-.41l4-2.06,6,12.12-4,2.06c-.44.22-.86.41-1.27.59l-.6.26-3.57,1.6-1.76.8-.52.24c-.42.19-.9.41-1.42.6l-6,2.33Z"></path>
                <path class="cls-8"
                      d="M725.84,620.05l.91-3.25c.26-.92.53-1.85.8-2.77l0-.11c.85-3,1.74-6,2.37-9l.73-3.49,13.61,3.21-.7,3.32c-.73,3.43-1.7,6.78-2.64,10l0,.12-.78,2.7-1,3.45Z"></path>
                <path class="cls-5"
                      d="M712.3,546c-.16-1.07-.35-2.18-.53-3.24l-.36-2.11-.25-1.52c-.06-.35-.11-.65-.17-.91l-1.34-6.05,12.92-2.79,1.34,6.06c.11.46.19,1,.26,1.4l.27,1.58c.11.68.22,1.34.34,2v.09c.21,1.2.41,2.4.59,3.6l.5,3.36-13.09,1.85Z"></path>
                <path class="cls-5"
                      d="M705.51,518l-1.66-4.41c-.12-.31-.24-.64-.36-1-.19-.5-.37-1-.57-1.48l-2.42-5.58,12.15-5.19,2.47,5.7c.28.66.5,1.27.72,1.87.12.31.23.62.35.92l1.8,4.79,1.27,3.88-12.51,4.31Z"></path>
                <path class="cls-2"
                      d="M725.42,512.28l-1.86-5c-.12-.3-.24-.64-.36-1l0-.09c-.21-.58-.43-1.18-.66-1.74l-2.56-6L732.76,493l2.62,6.17c.3.75.56,1.46.8,2.13.13.35.26.69.38,1l2,5.44,1.29,4.09-13.16,4.43Z"></path>
                <path class="cls-5"
                      d="M716,642.83l3.14-6.44c.13-.27.25-.51.35-.75l2-4.66,12.71,5.62-2,4.65c-.18.41-.36.78-.54,1.14l-3.17,6.52Z"></path>
                <path class="cls-5"
                      d="M691.9,489.38l-.41-.69c-.49-.81-1-1.63-1.5-2.36l-2-2.86,11.09-7.21,1.87,2.66c.69,1,1.28,1.95,1.85,2.9l4.25,7-11.43,6.63Z"></path>
                <path class="cls-5"
                      d="M675.32,665.65l2.25-2.55.33-.37c.2-.22.35-.38.49-.55l.85-1.06,3.85-4.74,10.29,8.3-4.83,6c-.25.31-.49.58-.73.84l-.31.34-2.21,2.5Z"></path>
                <path class="cls-2"
                      d="M713.11,484.59,710.38,480l-.57-1c-.32-.55-.64-1.1-1-1.62l-3.59-5.46,11.64-7.58,3.68,5.6c.43.68.8,1.31,1.16,1.93l0,.05.54.92,3,5,2,3.79-12.16,6.72Z"></path>
                <path class="cls-5"
                      d="M689.3,681l5.87-6.65c.17-.2.38-.46.58-.72l4.88-6.13,4.15-5.79.38-.54c.2-.28.39-.53.56-.79l4.78-7.46,11.75,7.42L717.31,668c-.27.42-.55.81-.79,1.15l-.36.5-4.45,6.21-5.15,6.47c-.26.34-.54.68-.82,1l-6.08,6.9Z"></path>
                <path class="cls-2"
                      d="M652.79,710.52l2.94-1.85,1-.61c.49-.3,1-.63,1.55-1l2.54-1.74,3.84-2.62.66-.5.48-.37,2.81-2.1,8.22,11.2L674.07,713l-.44.34c-.3.23-.6.46-.91.68L666,718.65c-.67.46-1.34.86-1.93,1.22l-.06,0q-.43.26-.87.54l-3,1.84Z"></path>
                <path class="cls-5"
                      d="M449.18,510.7l1.93-4c.16-.34.34-.66.5-.94l.22-.38,1.35-2.44.84-1.52a11.19,11.19,0,0,1,.62-1.07l3.05-4.9,10.3,6.37-3.07,4.92c-.1.15-.2.34-.32.55l-.22.41-.62,1.12-1.28,2.31-.25.44a5.77,5.77,0,0,0-.29.54l-1.95,4Z"></path>
                <path class="cls-9"
                      d="M412.88,471.32l1.32-2.16c1.81-3,3.84-5.8,5.79-8.54l1.71-2.39,1.53-2.17,9.76,7.31-1.45,2.06c-.57.82-1.15,1.63-1.74,2.45-1.8,2.51-3.66,5.11-5.27,7.76l-1.38,2.27Z"></path>
                <path class="cls-5"
                      d="M416.56,509.8l2.31-5.77c.17-.45.38-.92.57-1.33l.66-1.43.88-1.93c.49-1.08,1-2.19,1.54-3.31l1.47-3,11.87,5.82-1.46,3c-.47,1-.93,2-1.37,3l0,.08c-.28.63-.57,1.25-.86,1.88l-.64,1.39c-.15.33-.28.61-.37.86l-2.3,5.76Z"></path>
                <path class="cls-2"
                      d="M406.48,556.15,407,550c.06-.71.15-1.35.23-2,0-.36.1-.68.14-1l.66-5.07.72-4L421.8,540l-.72,4-.25,1.95-.36,2.72c0,.31-.08.64-.13,1v.06c-.08.52-.15,1.05-.2,1.57l-.49,6.06Z"></path>
                <path class="cls-5"
                      d="M438.8,469.65l4.69-5.85.32-.41,3.92-4.41,1.34-1.52,2.34-2.37,2.86-2.92c.27-.28.58-.59.94-.92l3.78-3.48.68-.62c.43-.4.86-.8,1.31-1.19l2.06-1.71,4-3.37,6.94-5.2,7.85,10.63-6.6,4.94-3.76,3.14-1.9,1.57c-.34.3-.7.63-1,1l-.7.65L464.19,461c-.18.16-.36.35-.56.55l-1,1.05-1.75,1.78-2.12,2.15-1.17,1.33-3.7,4.16-4.73,5.91Z"></path>
                <path class="cls-2"
                      d="M390.37,522.22l1.74-6.48c.22-.78.45-1.48.67-2.16.12-.36.23-.71.34-1.06l1.77-5.52,1.49-4,13.11,4.62-1.48,4-1.64,5.12-.35,1.07c-.19.6-.39,1.21-.55,1.78l-1.7,6.34Z"></path>
                <path class="cls-5"
                      d="M430.91,445.83l3.37-3.75c.3-.33.6-.62.88-.9l5.12-5.14,9.83,9.81-4.65,4.67c-.12.12-.27.26-.41.41s-.4.39-.58.59l-3.38,3.76Z"></path>
                <path class="cls-2"
                      d="M407.16,584l-.41-3.22c-.15-1.19-.21-2.38-.27-3.43l-.45-8.21,13.21-.5.43,7.9c.05,1,.1,1.94.22,2.82l.44,3.48Z"></path>
                <path class="cls-2"
                      d="M385.2,554.59l.55-6.68c.08-.78.18-1.51.27-2.21q.09-.59.15-1.14l.76-5.75.76-4.22,13.72,2.2-.76,4.17-.69,5.32c0,.33-.09.67-.14,1v.11c-.08.61-.17,1.24-.23,1.86L399,555.8Z"></path>
                <path class="cls-3"
                      d="M605.87,674.66l5.27-2c.17-.06.35-.15.57-.25l0,0,.37-.17,1.13-.52,2.35-1,.46-.21c.19-.08.37-.16.54-.25l3.86-2,5.27,10.57-3.82,2c-.33.17-.65.31-.94.44l-.07,0-.33.15-2.48,1.11-1.22.56-.35.15a9.47,9.47,0,0,1-1.08.46l-5.25,2.06Z"></path>
                <circle class="cls-7" cx="566.59" cy="566.59" r="181.83"></circle>
                <path class="cls-5"
                      d="M474.8,723c-.43-.24-.82-.49-1.2-.73l-.55-.35-3.31-2.07-1.64-1-.49-.3a15,15,0,0,1-1.29-.85L461.05,714l7.72-11.12,5.22,3.66c.25.18.55.37.87.56l.52.33,1.55,1,3.15,2,.59.38c.3.19.58.37.84.51l3.94,2.17-6.71,11.76Z"></path>
                <path class="cls-5"
                      d="M601.75,730.63l6.41-1.5.56-.13.81-.2,4.86-1.41,3.65,13.4-4.84,1.41c-.43.12-.83.21-1.22.3l-7.07,1.66Z"></path>
                <path class="cls-2"
                      d="M506.83,738.12l-.5-.16-1.11-.38-7.62-2.94c-.75-.3-1.43-.6-2.09-.9l-1-.45-3.19-1.38,5.52-12.74,3.19,1.38,1.07.47c.56.25,1.13.51,1.68.73l7.2,2.78.8.27.56.18,3.33,1.13-4.57,13.11Z"></path>
                <path class="cls-9"
                      d="M556.92,386l2.52-.15c2.67-.16,5.3-.17,7.31-.16l3,0,2.94,0,2.67,0L574.93,398h-2.72l-2.8,0-2.76,0c-1.83,0-4.24,0-6.62.14l-2.65.16Z"></path>
                <path class="cls-2"
                      d="M502,396.73l6.31-2.28c.78-.27,1.52-.49,2.17-.69l1-.33,5.54-1.71,4.15-1.07L524.94,404l-4.11,1.06-5.12,1.59-1.09.33c-.59.18-1.2.37-1.77.57l-6.17,2.23Z"></path>
                <path class="cls-5"
                      d="M592.75,400.88l-.57-.11c-.28,0-.55-.1-.81-.13l-5-.63,1.94-13.76,5,.63c.43.06.83.13,1.21.2l.53.1,6.64,1.18L599.24,402Z"></path>
                <path class="cls-2"
                      d="M472.51,411.05l5.79-3.38c.69-.39,1.35-.72,2-1.05l1-.52,5.15-2.68,3.89-1.79,6.06,12.5-3.86,1.77-4.76,2.48-1,.52c-.56.29-1.13.58-1.67.88l-5.65,3.3Z"></path>
            </g>
            <g id="circle2">
                <path class="cls-10"
                      d="M411.06,689.5C352.8,615.94,353.48,509,417.54,436c63.11-72,166.82-87.33,246.9-41.76"></path>
                <circle class="cls-7" cx="566.59" cy="566.59" r="197.99"></circle>
            </g>
            <g id="circle3">
                <path class="cls-2"
                      d="M546.65,861.93c-1.79,0-3.57-.25-5.35-.43L536,861l-5.34-.52c-1.77-.23-3.54-.53-5.31-.79l-1.89,13.41c1.85.27,3.69.58,5.55.82l5.58.54,5.58.56c1.86.19,3.72.41,5.6.45Z"></path>
                <path class="cls-5"
                      d="M406.56,791.4c-1.4-.9-2.69-1.93-4-2.93l-3.94-3-4-3c-1.32-1-2.53-2.12-3.81-3.17l-8.51,10.29c1.33,1.1,2.61,2.28,4,3.33l4.15,3.14,4.14,3.15c1.38,1,2.74,2.13,4.2,3.07Z"></path>
                <line class="cls-10" x1="732.39" y1="419.21" x2="797.45" y2="358.19"></line>
                <path class="cls-11"
                      d="M774.87,378.32a279.87,279.87,0,0,0-67.72-54.61,283.72,283.72,0,0,0-26.74-13.61"></path>
                <path class="cls-5"
                      d="M407.17,790.82c-1.41-.9-2.71-1.94-4-3l-4-3-4-3c-1.32-1-2.55-2.14-3.83-3.2L382.76,789c1.34,1.12,2.63,2.3,4,3.36l4.18,3.16,4.17,3.17c1.38,1.06,2.75,2.15,4.22,3.1Z"></path>
                <path class="cls-5"
                      d="M251.69,565.28v-5.73c0-.95,0-1.9.09-2.86l.15-2.85c.21-3.81.34-7.63.61-11.43l-13.51-1c-.28,4-.41,7.95-.63,11.92l-.16,3c-.05,1-.11,2-.09,3v6Z"></path>
                <path class="cls-2"
                      d="M257.16,625.25l-1.1-5.62c-.33-1.88-.55-3.78-.83-5.67l-.82-5.66-.41-2.84-.21-1.41-.13-1.43-13.46,1.54.15,1.49.21,1.48.43,3,.85,5.91c.29,2,.52,4,.87,5.91l1.14,5.86Z"></path>
                <path class="cls-2"
                      d="M265,476.2l1.51-5,.76-2.48c.13-.42.24-.83.38-1.24l.45-1.22,3.54-9.78.87-2.44.44-1.23.51-1.2,2-4.79,2-4.8,1-2.4c.33-.8.65-1.6,1.05-2.38l4.51-9.38c.76-1.55,1.47-3.14,2.27-4.68l2.49-4.57,5-9.16,5.45-8.89-11.51-7.14-5.67,9.26-5.18,9.54-2.6,4.77c-.83,1.61-1.58,3.26-2.37,4.88l-4.7,9.78c-.41.81-.75,1.65-1.1,2.49l-1,2.5-2.1,5-2.1,5-.53,1.25-.45,1.28-.92,2.55-3.69,10.19-.47,1.28c-.14.43-.26.86-.4,1.29l-.79,2.6-1.58,5.18Z"></path>
                <path class="cls-2"
                      d="M263.1,651.32c-.81-2.55-1.38-5.17-2-7.76l-1.89-7.8-13.22,3,2,8.13c.66,2.71,1.26,5.43,2.1,8.09Z"></path>
                <path class="cls-5"
                      d="M306.31,389.68l3.23-4.74,1.61-2.36c.54-.79,1.15-1.53,1.72-2.29l-10.92-8c-.6.8-1.23,1.57-1.79,2.39l-1.69,2.47-3.36,4.93Z"></path>
                <path class="cls-5"
                      d="M850.83,484.77l1.52,5.15c.48,1.73.85,3.49,1.29,5.22l1.27,5.23.64,2.61.32,1.31.25,1.32,13.24-2.82-.26-1.38-.33-1.36-.67-2.73-1.33-5.47c-.45-1.81-.85-3.65-1.34-5.46l-1.6-5.38Z"></path>
                <path class="cls-5"
                      d="M858.71,451.36l2.14,5.31c.67,1.79,1.26,3.61,1.89,5.41l1.88,5.42.94,2.7c.15.46.32.9.46,1.36l.4,1.37,12.92-4.06-.41-1.43c-.16-.48-.33-.94-.49-1.41l-1-2.83-2-5.64c-.66-1.88-1.27-3.77-2-5.64l-2.23-5.54Z"></path>
                <line class="cls-10" x1="340.16" y1="786.47" x2="407.52" y2="721.71"></line>
                <path class="cls-5"
                      d="M363.59,735.18c-19-22.86-36.38-50.36-46.85-78.78l-45.36,17a313.55,313.55,0,0,0,54.09,94.1Z"></path>
                <path class="cls-5"
                      d="M604.24,305.38a262.51,262.51,0,0,1,64,17.61l17.18-47a312.63,312.63,0,0,0-114.18-23.22"></path>
                <path class="cls-2"
                      d="M583.78,320.26q-8.52-.58-17.19-.58a246,246,0,0,0-102.11,22l-21.56-43.08a293.47,293.47,0,0,1,104-26.45q9.74-.65,19.63-.64"></path>
                <path class="cls-5"
                      d="M684,815.69,681.35,817c-.9.45-1.83.79-2.75,1.19l-5.5,2.33-2.74,1.18c-.92.39-1.82.83-2.76,1.14l-5.61,2,4.68,12.66,5.88-2.16c1-.33,1.94-.78,2.9-1.19l2.89-1.23,5.77-2.46c.95-.42,1.94-.78,2.87-1.24l2.82-1.39Z"></path>
                <path class="cls-8"
                      d="M829.45,649.12l.37-1.34c.43-1.55.87-3.1,1.31-4.64,1.39-4.86,2.82-9.89,3.85-14.9l.3-1.44,13.84,3.2-.28,1.37c-1.12,5.4-2.65,10.76-4.12,15.94-.44,1.53-.87,3.06-1.3,4.59l-.4,1.42Z"></path>
                <path class="cls-5"
                      d="M814.32,511.61c-.42-1.84-.89-3.71-1.35-5.51l-.87-3.47-.63-2.55c-.16-.64-.3-1.25-.5-1.83l-1.77-5.85,13.26-4,1.81,6c.24.7.42,1.44.59,2.15l.65,2.6c.28,1.17.58,2.34.87,3.51.49,1.93,1,3.92,1.45,5.91l.32,1.4-13.51,3Z"></path>
                <path class="cls-3"
                      d="M798.9,464.39l-1.46-3.12-2-4.2c-.25-.51-.49-1-.73-1.56-.4-.86-.81-1.75-1.24-2.59l-2.83-5.36,12.26-6.41,2.93,5.54c.49,1,.94,1.93,1.37,2.87.24.52.48,1,.73,1.55l3.62,7.74,1,2.42-12.69,5.51Z"></path>
                <path class="cls-2"
                      d="M818.75,455.66,815,447.72c-.26-.54-.51-1.09-.77-1.64-.44-.95-.89-1.93-1.37-2.86l-3-5.71L822.35,431l3.11,5.89c.54,1.05,1,2.11,1.5,3.13l.77,1.65,3.92,8.37,1,2.51-12.91,5.6Z"></path>
                <path class="cls-5"
                      d="M821.19,671.29l2.44-6c.11-.27.22-.56.34-.84.21-.5.4-1,.57-1.44l1.3-3.74,13.22,4.84-1.33,3.8c-.2.58-.43,1.14-.65,1.67-.12.27-.23.55-.34.82l-2.51,6.19Z"></path>
                <path class="cls-5"
                      d="M781.16,431l-.71-1.14c-.87-1.42-1.77-2.89-2.75-4.24l-.87-1.21,11.52-7.67.8,1.12c1.09,1.51,2.07,3.09,3,4.63.24.38.48.76.71,1.15l4.35,7-11.89,7.08Z"></path>
                <path class="cls-2"
                      d="M802.55,424.25l-4.71-7.41c-.33-.5-.65-1-1-1.53-.56-.89-1.14-1.8-1.73-2.67l-3.71-5.27L803,399.31l3.84,5.45c.65,1,1.26,1.93,1.85,2.87.34.53.67,1.06,1,1.58l5,7.81,1.34,2.36-12.09,7.2Z"></path>
                <path class="cls-5"
                      d="M788.57,729.32l4.22-5.9,1.7-2.38c.32-.47.65-1,1-1.5.18-.3.37-.59.56-.89l6.28-9.78,5.77-10.1.52-.91c.31-.54.61-1,.87-1.56l4.59-9.08,12.61,6.27-4.77,9.4c-.31.62-.65,1.21-1,1.78l-.53.91-6,10.58-6.57,10.24c-.2.32-.4.62-.59.93-.36.56-.71,1.11-1.08,1.66L800,737.58Z"></path>
                <path class="cls-5"
                      d="M711.68,800.54l1.21-.76,1.56-1c.89-.54,1.81-1.09,2.67-1.68l4.14-2.83,6.23-4.26c.4-.28.81-.6,1.22-.91l.74-.57,1.16-.86,8.32,11.35-1.13.85-.74.56c-.46.35-.91.69-1.38,1l-10.83,7.4c-1,.66-2,1.27-2.94,1.85l-1.55,1-1.21.76Z"></path>
                <path class="cls-5"
                      d="M355,461.25l1.73-3.56c.25-.53.53-1,.81-1.51.15-.26.3-.52.44-.78l2.48-4.48,1.23-2.23L362,448a19,19,0,0,1,1-1.65l3.43-5.5,11.77,7.29-3.33,5.34a14.56,14.56,0,0,0-.8,1.38l-.37.68-1.17,2.11-2.36,4.26-.44.78c-.25.44-.49.85-.69,1.27l-1.69,3.51Z"></path>
                <path class="cls-9"
                      d="M332.73,418.49c3.49-5.8,7.53-11.24,11.41-16.79L335,394.94c-4,5.77-8.23,11.44-11.87,17.48Z"></path>
                <path class="cls-5"
                      d="M316.87,470.6l2.26-5.84c.25-.7.56-1.4.86-2.07l1.09-2.44c.5-1.1,1-2.2,1.47-3.31.81-1.82,1.64-3.7,2.5-5.54l.61-1.3,12.49,6-.6,1.29c-.8,1.71-1.58,3.47-2.33,5.17-.48,1.09-1,2.18-1.45,3.27l-1.07,2.39c-.28.61-.53,1.18-.74,1.76l-2.2,5.7Z"></path>
                <path class="cls-5"
                      d="M303.13,519.88l1.11-6.17c.2-1.06.44-2.1.68-3.1l.39-1.68,1.08-4.72.83-3.61.7-2.52,13.4,3.48-.7,2.49-.77,3.36-1,4.52-.39,1.67c-.22.93-.44,1.88-.62,2.81l-1.06,6Z"></path>
                <path class="cls-2"
                      d="M354.32,403.84l3.59-4.59,1.59-2,.47-.59,6.5-7.48,2.18-2.52,3.84-4,4.8-5c.44-.46.89-.93,1.39-1.38l6.38-6,1.16-1.09c.67-.64,1.37-1.3,2.09-1.94l3.37-2.86,6.73-5.73,8.16-6.25,8.34,11.05-7.8,6-6.4,5.45-3.22,2.73c-.63.55-1.28,1.17-1.9,1.76l-1.14,1.08-6.14,5.76c-.41.38-.78.77-1.17,1.18l-1.72,1.79-2.92,3L378.88,396l-2,2.36-5.53,6.36-.7.8-.37.48-5,6.39Z"></path>
                <path class="cls-2"
                      d="M281.57,515.92l1.18-6.56c.23-1.15.49-2.28.75-3.38.13-.59.27-1.19.41-1.78l2.06-9,.73-2.62,13.63,3.53-.72,2.59-2,8.55c-.13.58-.27,1.17-.41,1.76-.24,1-.49,2.07-.68,3.1l-1.14,6.36Z"></path>
                <path class="cls-5"
                      d="M340.26,386.25l2.48-3.18c.39-.48.79-.93,1.17-1.37l.57-.66,4.38-5,10.62,9.24-4.24,4.87-.59.69c-.36.4-.69.78-1,1.18l-2.44,3.11Z"></path>
                <path class="cls-3"
                      d="M299.59,548.09l.05-1.38c.08-1.86.28-3.71.48-5.5l.15-1.34.89-8.19,13.73,1.74-.85,7.86-.15,1.33c-.19,1.66-.38,3.37-.44,5l-.06,1.49Z"></path>
                <path class="cls-2"
                      d="M277.34,552.82l.33-6.66c.08-1.16.19-2.3.31-3.41l.18-1.86.9-9.2.4-2.68,14,1.77-.39,2.65-.85,8.74L292,544c-.11,1-.22,2.12-.29,3.17l-.32,6.44Z"></path>
                <path class="cls-10" d="M819.5,544.61A254.24,254.24,0,0,1,702.25,781.24"></path>
                <path class="cls-2"
                      d="M642.1,775.93l5.92-2.15a15.61,15.61,0,0,0,1.47-.6l.71-.3,2.22-1,4.49-1.9c.26-.12.54-.23.83-.35.46-.19.9-.37,1.32-.58l3.49-1.71,5.91,12.52-3.56,1.75c-.52.26-1,.48-1.57.69l-.83.35-4.71,2-2.34,1-.7.31c-.57.24-1.15.5-1.77.7l-6.1,2.23Z"></path>
                <path class="cls-5"
                      d="M459.07,256.45l6.07-2.11c1.23-.41,2.48-.78,3.68-1.13l2-.6,10.07-3,1.86-.46,3.51,13.26-1.82.45-9.63,2.85-1.74.51-.23.07c-1.09.32-2.33.68-3.5,1.07l-5.85,2Z"></path>
                <path class="cls-5"
                      d="M429.87,268.05l5.85-2.68c1.18-.52,2.38-1,3.54-1.46l2-.8,9.75-3.93,1.8-.62,4.76,12.86-1.78.61-9.31,3.76-1.91.76c-1.15.46-2.28.91-3.38,1.4l-5.64,2.59Z"></path>
                <circle class="cls-7" cx="566.59" cy="566.59" r="329.06"></circle>
                <path class="cls-10" d="M617.3,782.09A222.1,222.1,0,0,1,489.16,774"></path>
                <path class="cls-5" d="M686.31,380.36a223.26,223.26,0,0,1,66.54,66.5"></path>
                <path class="cls-10" d="M438.45,747.12a225.36,225.36,0,0,1-17.77-14.06l-1.28-1.13"></path>
                <circle class="cls-12" cx="407.49" cy="722.09" r="4.03"></circle>
                <circle class="cls-12" cx="793.84" cy="361.75" r="4.03"></circle>
            </g>
            <g id="circle4">
                <polygon class="cls-9"
                         points="268.36 791.96 260.54 781.04 249.54 788.74 257.66 800.06 268.36 791.96"></polygon>
                <path class="cls-2"
                      d="M306.81,807c-.28-.3-.55-.6-.82-.91l-4.28-4.88-4.29-4.88-2.14-2.44-2-2.54L282.69,800l2.11,2.64,2.22,2.53,4.45,5.07,4.45,5.06c.33.39.68.77,1,1.15Z"></path>
                <path class="cls-2"
                      d="M390.08,873.67,379,866.91l-2.76-1.69c-.92-.57-1.86-1.1-2.74-1.73l-5.35-3.65-7.53,11.1,5.56,3.78c.91.65,1.88,1.21,2.83,1.8l2.87,1.75,11.47,7Z"></path>
                <path class="cls-9"
                      d="M206.39,667.48c-.45-1.61-1-3.18-1.37-4.8l-1.19-4.85-2.37-9.7L188.32,651l2.45,10.05,1.24,5c.4,1.68,1,3.32,1.42,5Z"></path>
                <path class="cls-2"
                      d="M198.54,705c-1.62-4.5-3.16-9-4.73-13.56l-12.91,4.32c1.62,4.68,3.21,9.37,4.89,14Z"></path>
                <path class="cls-2"
                      d="M235.36,778.49A400.61,400.61,0,0,1,204.49,720L192,725.22a415.35,415.35,0,0,0,31.93,60.54Z"></path>
                <path class="cls-2"
                      d="M279.31,854.6l.84.87c.92.93,1.81,1.87,2.77,2.75l5.7,5.33,5.71,5.32c1,.87,1.89,1.79,2.89,2.63l3,2.52L309,863.84l-2.88-2.44c-1-.8-1.85-1.7-2.78-2.54l-5.52-5.14-5.51-5.16c-.94-.84-1.8-1.76-2.68-2.66l-.84-.86Z"></path>
                <path class="cls-2"
                      d="M202.88,417.65l3.24-7.72,1.62-3.87c.56-1.28,1.19-2.52,1.78-3.79,2.42-5,4.81-10.07,7.27-15.08l8-14.7c1.3-2.47,2.78-4.83,4.23-7.21l4.37-7.14a401.68,401.68,0,0,1,40.1-53.59l-10.2-9.06a415.91,415.91,0,0,0-41.48,55.43l-4.51,7.38c-1.5,2.46-3,4.91-4.37,7.46L204.66,381c-2.55,5.18-5,10.39-7.52,15.6-.61,1.31-1.26,2.59-1.84,3.92l-1.68,4-3.35,8Z"></path>
                <path class="cls-3"
                      d="M373.7,223.68l3.09-1.8c1-.61,2.09-1.13,3.14-1.69l6.32-3.32,6.33-3.3,1.58-.83,1.62-.76,3.23-1.5-5.67-12.23L390,199.81l-1.67.79-1.64.85-6.55,3.42-6.54,3.43c-1.08.59-2.19,1.12-3.25,1.75l-3.19,1.86Z"></path>
                <path class="cls-2"
                      d="M470.6,928.17c-4.4-1-8.68-2.45-13-3.73s-8.66-2.54-12.87-4.15l-4.44,12.79c4.37,1.67,8.88,2.91,13.34,4.3s8.91,2.82,13.47,3.87Z"></path>
                <path class="cls-2"
                      d="M466.12,946.84c-4.64-1.06-9.17-2.57-13.73-3.92s-9.15-2.68-13.6-4.37l-4.49,12.89c4.6,1.75,9.36,3.06,14.06,4.52s9.41,3,14.22,4.07Z"></path>
                <path class="cls-3"
                      d="M880.71,731.29l-6.19,11.37c-.5,1-1.06,1.88-1.63,2.8l-1.69,2.76-3.38,5.52,11.54,7.17,3.5-5.73,1.75-2.87c.59-.95,1.18-1.91,1.7-2.9l6.42-11.8Z"></path>
                <path class="cls-3"
                      d="M798.51,248.82l8,6,4,3c1.32,1,2.66,2,3.92,3.09l8.44-10.42c-1.3-1.13-2.69-2.15-4-3.19l-4.11-3.13L806.41,238Z"></path>
                <path class="cls-2"
                      d="M824.9,269.77l2.9,2.46c1,.81,1.87,1.71,2.81,2.56l5.57,5.17,5.55,5.2c.94.84,1.81,1.77,2.69,2.67l2.65,2.73,5.3,5.45,2.64,2.73,1.32,1.37,1.26,1.43,10,11.42L878,304.21l-10.39-11.82-1.3-1.47-1.36-1.42-2.73-2.82L856.72,281,854,278.21c-.91-.93-1.81-1.89-2.78-2.77l-5.75-5.37-5.76-5.35c-1-.88-1.9-1.81-2.9-2.65l-3-2.54Z"></path>
                <path class="cls-5"
                      d="M667.86,186.73c4.64,1.07,9.17,2.6,13.73,4s9.15,2.69,13.61,4.4l4.43-12.8c-4.61-1.76-9.37-3.08-14.08-4.55s-9.4-3-14.21-4.1Z"></path>
                <path class="cls-5"
                      d="M212.56,565.1v-6.43c0-1.07.05-2.14.11-3.22l.16-3.21c.23-4.28.38-8.57.69-12.85l-13.51-1c-.31,4.44-.47,8.89-.71,13.34l-.17,3.34c-.06,1.11-.12,2.22-.11,3.33V565Z"></path>
                <polygon class="cls-5"
                         points="217.11 623.78 215.97 615.87 202.56 617.75 203.75 625.96 217.11 623.78"></polygon>
                <path class="cls-5"
                      d="M193,565l0-6.79c0-1.13,0-2.26.1-3.39l.17-3.4c.24-4.52.41-9,.73-13.56l-13.5-1c-.33,4.68-.51,9.37-.76,14l-.17,3.52c-.06,1.17-.13,2.34-.11,3.51l0,7Z"></path>
                <path class="cls-5"
                      d="M214,599l-.61-6.4c-.19-2.14-.23-4.29-.35-6.43l-.29-6.42-.15-3.22c-.06-1.07-.11-2.14-.09-3.21l-13.54.25c0,1.11,0,2.22.09,3.34l.15,3.33.31,6.68c.13,2.22.17,4.45.36,6.67l.63,6.65Z"></path>
                <path class="cls-5"
                      d="M199.49,636.14l-1.28-6.67c-.4-2.23-.67-4.48-1-6.71l-1-6.72-.48-3.36-.24-1.68-.17-1.69-13.45,1.54.17,1.75.25,1.74.49,3.48,1,7c.35,2.31.64,4.64,1.05,7l1.32,6.91Z"></path>
                <path class="cls-5"
                      d="M208.83,459.24l2-6.5,1-3.24c.35-1.08.76-2.14,1.13-3.2l4.62-12.78-12.64-4.85-4.79,13.24c-.39,1.11-.81,2.2-1.17,3.32l-1,3.36-2.07,6.73Z"></path>
                <path class="cls-5"
                      d="M193.55,587.2l-.31-6.78-.16-3.4c-.05-1.13-.11-2.26-.09-3.39l-13.54.25c0,1.18,0,2.35.09,3.52l.16,3.51.33,7Z"></path>
                <polygon class="cls-5"
                         points="292.07 285.32 297.2 280.34 287.92 270.48 282.61 275.63 292.07 285.32"></polygon>
                <path class="cls-5"
                      d="M274.87,333.34c2.87-3.5,5.82-6.94,8.73-10.4l2.19-2.6c.74-.86,1.44-1.74,2.23-2.56l4.63-5-9.94-9.2-4.79,5.16c-.82.84-1.55,1.76-2.32,2.65l-2.27,2.69c-3,3.59-6.07,7.16-9,10.78Z"></path>
                <path class="cls-5"
                      d="M370.14,907.69,358,900.25l-3-1.86c-1-.63-2-1.23-3-1.92l-5.9-4-7.59,11.21,6.1,4.16c1,.71,2.07,1.33,3.11,2l3.14,1.93,12.59,7.68Z"></path>
                <polygon class="cls-5"
                         points="245.29 418.21 248.07 412.41 235.89 406.49 233 412.51 245.29 418.21"></polygon>
                <path class="cls-5"
                      d="M200.1,493.93c1.6-8.93,4-17.67,6.19-26.46l-13-3.61C191,473,188.48,482,186.82,491.28Z"></path>
                <path class="cls-5"
                      d="M253.13,402.22l6.15-11.31c.49-1,1.06-1.86,1.62-2.77l1.68-2.75,3.36-5.49-11.51-7.14L251,378.45l-1.74,2.85c-.59.95-1.17,1.9-1.68,2.88l-6.39,11.73Z"></path>
                <path class="cls-5"
                      d="M335,884.87l-8-6-4-3c-1.33-1-2.67-2-3.93-3.1l-8.51,10.53c1.3,1.13,2.69,2.16,4.06,3.21l4.11,3.13,8.25,6.26Z"></path>
                <path class="cls-5"
                      d="M253.93,362.32l7.65-11.21,1.92-2.8c.65-.93,1.36-1.81,2-2.72l4.11-5.41L258.86,332l-4.25,5.6c-.7.94-1.43,1.86-2.1,2.82l-2,2.9-7.93,11.61Z"></path>
                <path class="cls-5"
                      d="M188.91,676.36l-2-6.85c-.63-2.3-1.15-4.62-1.73-6.94l-1.68-6.94-.84-3.47-.41-1.73-.35-1.76-13.24,2.82.35,1.81.43,1.8.86,3.59,1.75,7.18c.59,2.39,1.13,4.79,1.78,7.16l2.07,7.09Z"></path>
                <path class="cls-5"
                      d="M180.18,639.78,179,633.4l-.29-1.59-.24-1.6L178,627l-1.84-12.85c-.5-4.29-.86-8.61-1.28-12.91l-.6-6.47c-.14-2.16-.22-4.32-.33-6.48l-.59-13v-13c0-2.17,0-4.33,0-6.5l.32-6.48c.23-4.33.39-8.66.71-13l-13.51-1c-.33,4.47-.49,8.95-.73,13.42l-.33,6.71c-.06,2.24,0,4.48,0,6.72V575.6l.6,13.42c.12,2.24.2,4.48.35,6.71l.62,6.68c.43,4.46.81,8.92,1.33,13.37l1.89,13.29.49,3.32.24,1.66.31,1.65,1.26,6.59Z"></path>
                <path class="cls-5"
                      d="M324.62,282c.86-.74,1.7-1.5,2.57-2.23l2.65-2.11,5.32-4.23,5.32-4.23c1.78-1.39,3.66-2.66,5.49-4l-8-10.93c-1.89,1.39-3.83,2.71-5.68,4.15l-5.52,4.37-5.51,4.39-2.75,2.2c-.9.74-1.77,1.53-2.66,2.3Z"></path>
                <polygon class="cls-5"
                         points="358.6 256.42 370 249.05 362.88 237.53 351.06 245.16 358.6 256.42"></polygon>
                <path class="cls-5"
                      d="M315.89,263.83c6.81-5.38,13.48-10.94,20.63-15.86l5.29-3.79,2.65-1.89c.87-.64,1.8-1.2,2.71-1.8l10.92-7.07-7.17-11.48-11.31,7.31c-.93.62-1.89,1.2-2.8,1.86l-2.74,1.95L328.6,237c-7.39,5.11-14.31,10.84-21.35,16.42Z"></path>
                <path class="cls-5"
                      d="M409.4,206.42c2.15-1,4.38-1.86,6.59-2.76l6.62-2.66,6.64-2.64L436,196l-4.49-12.78-7,2.43-6.86,2.73-6.86,2.75c-2.28.93-4.59,1.79-6.81,2.86Z"></path>
                <path class="cls-5"
                      d="M509,916.56l-3.18-.48-3.16-.63-6.31-1.26-6.31-1.26c-1.05-.19-2.09-.47-3.13-.73l-3.12-.79-3.18,13.16,3.24.82c1.08.27,2.16.56,3.25.76l6.56,1.31,6.55,1.31,3.28.65,3.3.5Z"></path>
                <path class="cls-5"
                      d="M527.84,938.79l-6.75-.68c-2.25-.29-4.49-.65-6.73-1l-1.89,13.41c2.32.34,4.64.71,7,1l7,.71Z"></path>
                <polygon class="cls-5"
                         points="917.86 615.46 915.95 628.18 929.29 630.52 931.28 617.3 917.86 615.46"></polygon>
                <path class="cls-2"
                      d="M913.37,641.09a353,353,0,0,1-20.1,63.56l12.47,5.28a366.62,366.62,0,0,0,20.87-66Z"></path>
                <polygon class="cls-5"
                         points="916.58 510.16 917.72 518.08 931.13 516.2 929.95 507.98 916.58 510.16"></polygon>
                <polygon class="cls-5"
                         points="865.4 341.76 873.32 352.8 884.43 345.05 876.21 333.61 865.4 341.76"></polygon>
                <path class="cls-5"
                      d="M823.62,322.85l2.25,2.31c.74.77,1.5,1.53,2.19,2.35l4.25,4.83,4.25,4.84,2.12,2.41,2,2.52,10.47-8.59-2.09-2.61-2.2-2.52-4.41-5-4.42-5c-.72-.85-1.5-1.63-2.28-2.44l-2.33-2.39Z"></path>
                <path class="cls-2"
                      d="M876.59,324.37c1.48,1.87,3,3.72,4.43,5.62l4.18,5.8,4.16,5.81c1.39,1.94,2.8,3.86,4.06,5.89l11.24-7.55c-1.3-2.09-2.76-4.09-4.19-6.09l-4.31-6-4.33-6c-1.49-2-3.05-3.88-4.57-5.82Z"></path>
                <path class="cls-2"
                      d="M837.8,309.37l2.36,2.44c.79.81,1.59,1.61,2.32,2.48l4.49,5.1,4.48,5.1,2.24,2.55,2.12,2.66,10.47-8.6-2.2-2.74-2.32-2.65-4.65-5.29-4.65-5.29c-.76-.89-1.59-1.73-2.41-2.57L847.61,300Z"></path>
                <path class="cls-2"
                      d="M765.35,250.27A376.74,376.74,0,0,1,822,293.76l9.23-9.9a388.78,388.78,0,0,0-58.7-45.06Z"></path>
                <path class="cls-5"
                      d="M924.86,674.71l-2,6.49-1,3.25c-.34,1.08-.76,2.13-1.13,3.2l-4.62,12.77,12.65,4.85L933.56,692c.39-1.11.82-2.21,1.17-3.32l1-3.37,2.06-6.73Z"></path>
                <path class="cls-5"
                      d="M958.29,606.6l-.72,7.11-.18,1.78-.25,1.77-.52,3.54c-.7,4.71-1.39,9.43-2.13,14.14l13.34,2.33c.77-4.87,1.48-9.75,2.21-14.63l.53-3.66.27-1.83.18-1.83.74-7.37Z"></path>
                <path class="cls-5"
                      d="M763.56,226.26l12.17,7.43,3,1.87c1,.63,2,1.23,3,1.91l5.9,4,7.6-11.21-6.11-4.15c-1-.72-2.07-1.33-3.11-2l-3.14-1.93-12.59-7.69Z"></path>
                <polygon class="cls-2"
                         points="888.4 715.74 885.62 721.54 897.8 727.46 900.69 721.44 888.4 715.74"></polygon>
                <path class="cls-2"
                      d="M933.59,640c-1.59,8.92-4,17.67-6.19,26.46l13.05,3.6c2.29-9.1,4.77-18.16,6.42-27.41Z"></path>
                <path class="cls-5"
                      d="M953.51,494.17l1.22,6.37.3,1.6.23,1.6.47,3.21,1.83,12.85c.5,4.3.86,8.62,1.28,12.92l.61,6.47c.14,2.15.22,4.32.33,6.48l.59,13,0,13c0,2.16,0,4.33-.05,6.49l-.31,6.49c-.24,4.32-.39,8.65-.71,13l13.5,1c.33-4.47.5-9,.74-13.42l.32-6.72c.06-2.23,0-4.47,0-6.71V558.34l-.6-13.42c-.11-2.23-.2-4.47-.34-6.7l-.63-6.69c-.43-4.45-.8-8.92-1.32-13.36l-1.9-13.29-.48-3.32-.25-1.66-.3-1.65-1.26-6.59Z"></path>
                <path class="cls-5"
                      d="M644.31,912.67c-2.07.55-4.19.92-6.29,1.33l-6.32,1.21-6.32,1.22-6.37.92,2,13.39,6.61-1,6.56-1.26,6.56-1.27c2.19-.42,4.38-.81,6.54-1.37Z"></path>
                <circle class="cls-7" cx="566.59" cy="566.59" r="406.6"></circle>
                <path class="cls-2"
                      d="M220.46,492.88a351,351,0,0,1,20-63.49L228,424.1A364.67,364.67,0,0,0,207.2,490Z"></path>
                <path class="cls-2"
                      d="M268.05,757.69l-2.89-4.49c-.49-.73-.94-1.5-1.38-2.27l-1.33-2.31-5.34-9.24c-.44-.77-.9-1.53-1.32-2.32l-1.22-2.37L252.13,730l-2.44-4.74c-.81-1.58-1.65-3.15-2.35-4.78l-4.42-9.71c-.72-1.63-1.52-3.22-2.18-4.87l-2-5-4-9.91-3.48-10.09-12.82,4.38,3.61,10.48,4.1,10.29,2.05,5.14c.69,1.71,1.51,3.37,2.25,5.06l4.6,10.07c.73,1.7,1.6,3.33,2.44,5l2.53,4.92,2.54,4.93,1.27,2.46c.43.81.91,1.6,1.37,2.4l5.53,9.59,1.39,2.4c.45.8.92,1.6,1.43,2.36l3,4.66Z"></path>
                <path class="cls-2"
                      d="M257.21,809.3c-1.49-1.89-3-3.76-4.46-5.67l-4.21-5.84-4.19-5.86c-1.4-1.95-2.82-3.9-4.09-5.94l-11.33,7.62c1.31,2.11,2.77,4.12,4.22,6.14l4.34,6.06,4.36,6.05c1.51,2,3.07,3.91,4.61,5.86Z"></path>
                <polygon class="cls-2"
                         points="286.79 814.77 286.47 814.4 282.02 809.33 279.8 806.8 277.7 804.16 267.3 812.71 269.49 815.43 271.79 818.06 276.4 823.32 276.75 823.72 286.79 814.77"></polygon>
                <path class="cls-2"
                      d="M368.38,883.39A372.49,372.49,0,0,1,311.92,840l-9.23,9.92a387,387,0,0,0,58.5,45Z"></path>
                <path class="cls-2"
                      d="M361.58,855.37c-1.8-1.18-3.5-2.5-5.21-3.81l-5.15-3.9-5.14-3.91c-1.7-1.31-3.31-2.75-5-4.12l-8.65,10.45c1.73,1.43,3.4,2.92,5.17,4.28l5.33,4.06,5.34,4.06c1.78,1.35,3.54,2.73,5.41,3.95Z"></path>
                <path class="cls-4"
                      d="M219.35,704.73l-2.51-6.33c-.78-2.13-1.49-4.28-2.24-6.43l-2.2-6.44-1.11-3.22-.54-1.61-.48-1.63-12.94,4.11.49,1.69.56,1.67,1.14,3.34,2.29,6.67c.77,2.22,1.51,4.46,2.32,6.66l2.6,6.55Z"></path>
                <path class="cls-10" d="M623.51,951.37a392.73,392.73,0,0,1-56.92,4.14"></path>
                <path class="cls-5"
                      d="M372.65,839.19c-1.7-1.11-3.29-2.37-4.91-3.6l-4.84-3.69-4.84-3.69c-1.6-1.24-3.11-2.6-4.67-3.9l-8.71,10.59c1.62,1.35,3.19,2.77,4.86,4.06l5,3.84,5,3.84c1.68,1.27,3.33,2.58,5.1,3.74Z"></path>
                <path class="cls-9"
                      d="M238.55,501.33c1.42-8.06,3.61-15.94,5.56-23.89l-13.2-3.66c-2,8.26-4.31,16.47-5.79,24.86Z"></path>
                <path class="cls-2"
                      d="M847.35,749.9l-6.86,10-1.71,2.51c-.57.83-1.22,1.61-1.82,2.42l-3.68,4.83,10.86,8.24,3.83-5c.63-.84,1.29-1.66,1.89-2.52l1.78-2.61,7.13-10.41Z"></path>
                <path class="cls-5"
                      d="M237.93,628.88l-1.15-6c-.36-2-.59-4-.9-6l-.86-6-.43-3-.22-1.51-.15-1.51-13.45,1.54.15,1.58.23,1.56.45,3.13.89,6.26c.32,2.09.57,4.19.94,6.26l1.19,6.21Z"></path>
                <path class="cls-5"
                      d="M248.06,464.73l.89-2.91c.3-1,.68-1.9,1-2.86l2.07-5.71-12.73-4.62-2.15,5.95c-.35,1-.74,2-1.05,3l-.93,3Z"></path>
                <path class="cls-5"
                      d="M245.28,660.05l-1.71-5.83c-.54-2-1-3.94-1.46-5.91l-1.44-5.91-.72-3-.36-1.47-.28-1.5-13.25,2.82.3,1.55.37,1.54.75,3.07L229,651.6c.51,2,1,4.11,1.52,6.14l1.79,6.07Z"></path>
                <path class="cls-5"
                      d="M257,440.38l2.72-6.5,1.36-3.25c.46-1.08,1-2.12,1.5-3.19l6.1-12.7,6.74-12.38c.57-1,1.11-2.08,1.7-3.09l1.84-3,3.68-6-11.51-7.14-3.82,6.25-1.91,3.13c-.62,1.05-1.18,2.14-1.77,3.2l-7,12.88-6.34,13.21c-.52,1.11-1.09,2.19-1.56,3.32l-1.42,3.38-2.83,6.76Z"></path>
                <path class="cls-5"
                      d="M350,311.85c.77-.66,1.51-1.35,2.29-2l2.39-1.89,4.75-3.78,4.76-3.79c1.59-1.25,3.28-2.38,4.91-3.57l-8-10.94c-1.7,1.25-3.45,2.43-5.11,3.73L351,293.55l-5,3.94-2.47,2c-.81.67-1.59,1.38-2.39,2.07Z"></path>
                <path class="cls-5"
                      d="M885.63,669.22l-.89,2.9c-.3,1-.67,1.91-1,2.87l-2.07,5.71,12.73,4.62,2.15-6c.35-1,.74-2,1.06-3l.92-3Z"></path>
                <path class="cls-5"
                      d="M670.92,885.12c-1.9.71-3.87,1.23-5.81,1.81l-5.83,1.71-5.84,1.72-5.91,1.43,3.27,13.14,6.14-1.49,6.08-1.78,6.06-1.78c2-.6,4.06-1.15,6-1.88Z"></path>
                <path class="cls-2"
                      d="M305.54,357.24c2.57-3.13,5.21-6.21,7.81-9.32l2-2.32c.66-.77,1.28-1.57,2-2.3l4.14-4.44-9.88-9.17-4.31,4.63c-.74.75-1.39,1.58-2.08,2.38l-2,2.42c-2.71,3.24-5.45,6.44-8.13,9.7Z"></path>
                <path class="cls-5"
                      d="M489.66,221.12c2.08-.54,4.2-.91,6.32-1.32l6.34-1.22,6.33-1.22,6.4-.91L513,203l-6.63.95-6.58,1.26-6.58,1.26c-2.2.43-4.4.81-6.56,1.38Z"></path>
                <path class="cls-5"
                      d="M489.38,221.27c2.08-.54,4.19-.91,6.3-1.32l6.31-1.22,6.32-1.21,6.37-.92-2-13.39-6.61.95-6.56,1.26L493,206.68c-2.18.43-4.38.81-6.53,1.38Z"></path>
                <path class="cls-10" d="M386.19,246.38a364.91,364.91,0,0,1,100.1-38.46"></path>
                <path class="cls-4"
                      d="M337.69,296.52c.81-.7,1.6-1.42,2.42-2.11l2.53-2,5-4,5-4c1.7-1.32,3.48-2.51,5.21-3.78l-8-10.95c-1.8,1.31-3.65,2.56-5.41,3.93l-5.24,4.15L334,281.91,331.4,284c-.86.71-1.68,1.46-2.52,2.19Z"></path>
            </g>
            <g id="circle6" class="cls-13">
                <path class="cls-2"
                      d="M81.62,808.17,80,805l-1.48-3.18-3-6.43-5.88-12.89c-.48-1-.93-2.06-1.38-3.2L66.94,776l-2.21-5.5,12.47-5,2.14,5.31L80.63,774c.44,1.11.91,2.2,1.38,3.22l5.72,12.51L90.62,796l1.45,3.12,1.6,3.11,5.81,11.21-11.87,6.3Z"></path>
                <path class="cls-2"
                      d="M65.6,701.47c-.54-2.08-1.06-4.25-1.56-6.34-.22-.92-.45-1.85-.67-2.77l-2.19-9.16c-.21-.9-.43-1.82-.64-2.73-.42-1.74-.85-3.52-1.2-5.3l13.18-2.8c.35,1.75.76,3.48,1.17,5.16.21.88.42,1.76.62,2.65l2.13,8.9.66,2.72c.49,2,1,4.12,1.52,6.18l2.22,7.7-13,3.75Z"></path>
                <path class="cls-2"
                      d="M450.39,37.52c2-.47,4.11-.87,6.12-1.25l2.36-.46L468.51,34l9.66-1.78L486.71,31l2,13.31-8.3,1.2L471,47.21,461.59,49l-2.32.45c-1.95.37-4,.76-5.94,1.22Z"></path>
                <path class="cls-14"
                      d="M955.66,244c-1.25-1.55-2.55-3.16-3.9-4.7l-6.08-6.83-6.93-7.73c-1.48-1.66-3-3.36-4.6-5l9.65-9.15c1.62,1.64,3.18,3.39,4.7,5.08l.88,1,6.29,7,6.26,7c1.35,1.54,2.67,3.18,4,4.76l1.29,1.59-10.3,8.43Z"></path>
                <path class="cls-5"
                      d="M830.53,109.37c-3.85-2.33-7.86-4.47-11.76-6.54l-4-2.16-4.13-2.19c-3.87-2.07-7.87-4.2-11.94-6.09l5.9-12.13c4.19,1.95,8.33,4.16,12.34,6.29,1.39.74,2.77,1.48,4.17,2.21l4.1,2.2c4,2.14,8.18,4.35,12.14,6.74Z"></path>
                <path class="cls-5"
                      d="M680.61,51.15c-4.81-1-10-2-15.85-3.15l-.72-.14,2.44-13.26,1.48.28C673.61,36,678.72,37,683.53,38Z"></path>
                <path class="cls-5"
                      d="M790.85,63.61c-1.28-.6-2.61-1.22-4-1.76L777.66,58l-9.26-3.79-4.65-1.88L760.1,51l4.7-12.64,3.77,1.36,4.73,1.92,9.53,3.89,9.5,3.94c1.34.54,2.67,1.16,4,1.75l4.33,2L795,65.54Z"></path>
                <path class="cls-5"
                      d="M25.21,552.71c.16-4.74.41-9.53.65-14.18.05-1,.1-2.1.16-3.16l13.46.81-.18,3.41c-.22,4.41-.45,8.95-.61,13.44Z"></path>
                <path class="cls-5"
                      d="M189.64,923.47c-1.64-1.67-3.21-3.43-4.74-5.14l-7.14-8-6.26-7.06c-1.36-1.56-2.7-3.22-4-4.81-.42-.53-.84-1.05-1.27-1.57l10.42-8.56,1.22,1.51c1.25,1.56,2.55,3.17,3.9,4.71l6.08,6.85,6.95,7.78c1.48,1.65,3,3.35,4.59,5Z"></path>
                <path class="cls-5"
                      d="M29,502.21c.23-2.17.56-4.38.87-6.52.16-1.07.32-2.14.46-3.21l1.44-9.74.73-4.87c.18-1.21.36-2.45.59-3.7l13.28,2.33c-.21,1.19-.39,2.37-.56,3.52L45,484.85l-1.4,9.47c-.14,1.06-.3,2.11-.45,3.16-.31,2.08-.62,4.23-.85,6.37l-.85,8.38-13.42-1.37Z"></path>
                <path class="cls-5"
                      d="M358,91.94l3.27-1.48c.92-.4,1.89-.79,2.82-1.17l1.51-.61,8.76-3.53,8.78-3.49c1.48-.61,3-1.14,4.38-1.62l3.38-1.18,4.53,12.7-3.23,1.12c-1.38.48-2.88,1-4.35,1.61l-8.5,3.39-8.51,3.43-1.44.58c-.92.37-1.88.76-2.82,1.17l-3.13,1.42Z"></path>
                <path class="cls-5"
                      d="M329.05,1053.91c-4.18-1.94-8.31-4.15-12.32-6.28-1.39-.74-2.79-1.49-4.19-2.22s-2.71-1.46-4.08-2.18c-4-2.15-8.19-4.36-12.16-6.76l6.76-11.66c3.85,2.32,7.86,4.45,11.74,6.51l4.08,2.19c1.39.72,2.76,1.45,4.13,2.19,3.87,2.06,7.86,4.19,11.94,6.08Z"></path>
                <path class="cls-5"
                      d="M432,1068.27c-2.42-.6-4.83-1.32-7.18-2l-9.84-3-9-2.74c-2.05-.68-4.15-1.42-6.18-2.14l-1.63-.57,4.41-12.74,1.55.54c2,.7,4,1.42,6,2.09l8.8,2.67,9.5,2.84c2.29.69,4.65,1.4,7,2Z"></path>
                <path class="cls-5"
                      d="M465.82,1099.32c-5.81-1.13-11-2.16-15.76-3.13L453,1083c4.72,1,9.75,2,15.71,3.12l.86.17-2.45,13.26Z"></path>
                <path class="cls-5"
                      d="M1032.13,369.51c-.92-2.27-2-4.51-2.94-6.69l-4.13-9-3.84-8.32c-1-1.93-2-3.84-2.9-5.68l-.78-1.5,12-6.13.81,1.55c1,1.91,2,3.88,3,5.83l4,8.56,4.21,9.19c1,2.27,2.11,4.62,3.06,7Z"></path>
                <path class="cls-5"
                      d="M1061.22,461.62c-.35-1.75-.77-3.49-1.18-5.18l-.63-2.63-2.14-8.92c-.24-.95-.47-1.9-.7-2.85-.48-2-1-4-1.5-6.06l-2.24-7.72,13-3.72,2.31,8c.54,2.08,1.07,4.24,1.57,6.33.23.93.45,1.86.68,2.79l2.21,9.17c.21.91.43,1.82.65,2.73.42,1.74.85,3.53,1.2,5.32Z"></path>
                <path class="cls-5"
                      d="M934.63,188c-.84-.88-1.75-1.71-2.63-2.52l-4.37-4-13.26-12.11,8.85-10.17,13.64,12.44,3.6,3.33.91.84c.87.8,1.78,1.63,2.61,2.5l6.13,6.17L940.56,194Z"></path>
                <path class="cls-2"
                      d="M729.93,88.35c-2-.7-4.07-1.43-6.11-2.11L715,83.55l-9.56-2.86c-2.29-.69-4.65-1.4-7-2l3.47-13.07c2.44.61,4.9,1.35,7.28,2.06l9.78,2.94L728,73.38c2.07.69,4.18,1.44,6.23,2.16l1.61.57-4.41,12.78Z"></path>
                <circle class="cls-7" cx="566.59" cy="566.59" r="566.49"></circle>
                <path class="cls-7"
                      d="M458.46,1121.49A565.49,565.49,0,0,1,450.23,13.21,565.48,565.48,0,0,1,683,1120,561.84,561.84,0,0,1,458.46,1121.49Z"></path>
            </g>
        </g>
    </g>
</svg>