<svg width="227" height="88" viewBox="0 0 227 88" fill="none" xmlns="http://www.w3.org/2000/svg">
<path d="M0 0H88V88H0V0Z" fill="#1B1B1B"/>
<path d="M88 0H226.875V88H88V0Z" fill="#252525"/>
<path fill-rule="evenodd" clip-rule="evenodd" d="M114.059 29.5349H125.661C126.94 29.5349 128.289 29.6937 129.576 30.1391V29.5349H141.55C143.755 29.5349 145.995 30.093 147.846 31.5799C147.884 31.5483 147.922 31.5169 147.962 31.4858C149.64 30.1446 151.623 29.5349 153.676 29.5349C156.325 29.5349 159.079 29.6474 161.937 29.87L165.418 30.1409L165.608 29.5349H168.66L171.117 20.7595L173.574 29.5349H176.7L176.804 29.8679V29.5349H202.188L195.187 43.0993L202.478 56.6499H172.135L171.129 53.3312L170.144 56.6499H158.747C157.245 56.7333 155.644 56.7737 153.948 56.7737C153.376 56.7737 152.805 56.7339 152.242 56.6499H129.576V56.1945C128.384 56.5304 127.153 56.6499 125.983 56.6499H114.059V29.5349ZM137.639 52.2499V45.4189C137.894 45.426 138.14 45.4323 138.376 45.4379C138.695 45.4454 138.997 45.4515 139.283 45.4562C139.774 45.4644 140.216 45.4684 140.609 45.4684L143.554 52.2499H147.292L143.876 44.8992C143.99 44.8506 144.101 44.7991 144.209 44.7446C144.458 44.6186 144.691 44.4766 144.907 44.3188C144.931 44.3013 144.954 44.2837 144.978 44.2659C144.996 44.2518 145.015 44.2376 145.033 44.2232C145.053 44.2074 145.073 44.1915 145.093 44.1754C145.434 43.8991 145.73 43.5793 145.98 43.2162C146.508 42.4737 146.772 41.3352 146.772 39.8007C146.772 39.1873 146.735 38.6263 146.66 38.1177C146.479 36.8819 146.077 35.955 145.456 35.3371C145.425 35.3062 145.393 35.276 145.361 35.2467C145.314 35.2024 145.267 35.1593 145.218 35.1173C145.197 35.0989 145.176 35.0807 145.154 35.0628C144.25 34.3109 143.049 33.9349 141.55 33.9349H133.976V52.2499H137.639ZM129.576 51.4561C129.762 51.3447 129.934 51.2216 130.092 51.0867C131.016 50.3112 131.478 49.0159 131.478 47.2009C131.478 46.9783 131.468 46.7638 131.449 46.5574C131.438 46.4338 131.424 46.3131 131.406 46.1952C131.283 45.3872 131.001 44.7159 130.562 44.1814C130.454 44.0472 130.342 43.9215 130.225 43.8045C130.023 43.6029 129.807 43.4269 129.576 43.2765C129.499 43.2261 129.42 43.1786 129.339 43.134C129.306 43.1154 129.272 43.0974 129.238 43.0798C128.956 42.9344 128.655 42.8231 128.334 42.7459C128.561 42.6858 128.773 42.6075 128.972 42.511C128.995 42.4999 129.017 42.4885 129.04 42.4768C129.233 42.3773 129.411 42.2599 129.576 42.1248C129.797 41.9436 129.993 41.7304 130.164 41.4854C130.181 41.4604 130.198 41.4351 130.215 41.4094C130.581 40.8413 130.796 40.14 130.862 39.3057C130.87 39.2017 130.876 39.0956 130.88 38.9874C130.882 38.905 130.884 38.8213 130.884 38.7364C130.884 37.1494 130.456 35.9558 129.6 35.1556C129.592 35.1483 129.584 35.1409 129.576 35.1336C129.561 35.1194 129.545 35.1053 129.529 35.0913C128.659 34.3204 127.37 33.9349 125.661 33.9349H118.459V52.2499H125.983C127.496 52.2499 128.694 51.9853 129.576 51.4561ZM125.884 48.9582C125.917 48.9582 125.95 48.9577 125.983 48.9568C126.177 48.9514 126.356 48.93 126.522 48.8926C126.998 48.7851 127.358 48.5453 127.602 48.1734C127.609 48.1635 127.615 48.1535 127.621 48.1434C127.781 47.8888 127.889 47.5747 127.944 47.2009C127.973 47.0031 127.988 46.7886 127.988 46.5574C127.988 46.4711 127.985 46.3871 127.979 46.3054C127.977 46.2874 127.976 46.2694 127.974 46.2516C127.949 45.9795 127.889 45.7336 127.793 45.5138C127.768 45.4549 127.74 45.3978 127.709 45.3426C127.624 45.1883 127.519 45.0487 127.394 44.9239C127.357 44.8836 127.318 44.8452 127.279 44.8088C127.062 44.6091 126.81 44.4688 126.522 44.3879C126.326 44.3327 126.113 44.3052 125.884 44.3052H122.122V48.9582H125.884ZM125.686 41.4837C125.754 41.4837 125.82 41.4804 125.884 41.4739C126.123 41.4494 126.336 41.3793 126.522 41.2635C126.674 41.1692 126.807 41.0446 126.924 40.8897C127.051 40.7293 127.152 40.5472 127.227 40.3435C127.261 40.2516 127.29 40.1552 127.314 40.0544C127.348 39.9085 127.371 39.7534 127.384 39.589C127.385 39.5749 127.386 39.5608 127.387 39.5466C127.391 39.4683 127.394 39.388 127.394 39.3057C127.394 39.2687 127.393 39.2321 127.393 39.1961C127.389 39.0322 127.376 38.879 127.354 38.7364C127.287 38.2965 127.135 37.9582 126.899 37.7217C126.787 37.6039 126.661 37.5071 126.522 37.4314C126.284 37.3016 126.005 37.2335 125.686 37.2272C125.678 37.227 125.67 37.2269 125.661 37.2268C125.653 37.2267 125.645 37.2267 125.637 37.2267H122.122V41.4837H125.686ZM137.639 42.5232H140.906C141.348 42.5232 141.725 42.4465 142.039 42.2931C142.23 42.2 142.396 42.0787 142.54 41.9292C142.556 41.9114 142.572 41.893 142.588 41.8741C142.746 41.6832 142.868 41.4358 142.954 41.1319C142.96 41.1134 142.965 41.0946 142.97 41.0757C142.97 41.0733 142.971 41.0708 142.972 41.0684C143.063 40.7175 143.109 40.2949 143.109 39.8007C143.109 39.0474 142.995 38.4769 142.768 38.0891C142.756 38.0679 142.743 38.0472 142.73 38.0271C142.673 37.9397 142.609 37.8627 142.54 37.7959C142.396 37.6526 142.23 37.5364 142.039 37.4472C141.89 37.3775 141.727 37.3243 141.55 37.2876C141.353 37.247 141.138 37.2267 140.906 37.2267H137.639V42.5232ZM149.493 48.3394C149.493 49.4666 149.705 50.3305 150.13 50.9313C150.32 51.2012 150.554 51.418 150.83 51.5817C151.22 51.8127 151.638 51.9932 152.085 52.1231C152.659 52.2902 153.28 52.3737 153.948 52.3737C154.198 52.3737 154.446 52.3728 154.691 52.3709C156.035 52.3609 157.299 52.3231 158.484 52.2578C159.591 52.1967 160.628 52.1116 161.596 52.0024V48.9334H154.691C154.403 48.9334 154.155 48.8903 153.948 48.8039C153.712 48.7054 153.529 48.5505 153.398 48.3394C153.334 48.2357 153.283 48.1185 153.244 47.9876C153.235 47.9561 153.226 47.9238 153.218 47.8908C153.216 47.8818 153.214 47.8729 153.212 47.8638C153.175 47.6957 153.156 47.5077 153.156 47.2999V44.7754L160.408 44.5774V41.6817L153.156 41.4837V38.8354C153.156 38.5981 153.186 38.3887 153.246 38.2074C153.253 38.1859 153.26 38.1648 153.268 38.1441C153.27 38.1404 153.271 38.1367 153.272 38.133C153.274 38.1279 153.276 38.1228 153.279 38.1177C153.365 37.9043 153.498 37.7341 153.676 37.6069C153.939 37.4194 154.302 37.3257 154.765 37.3257H161.596V34.2567C159.234 34.0728 156.957 33.9678 154.765 33.9415C154.4 33.9371 154.037 33.9349 153.676 33.9349C152.521 33.9349 151.531 34.2649 150.706 34.9249C150.61 35.0017 150.519 35.0845 150.434 35.1733C149.807 35.8285 149.493 36.8099 149.493 38.1177V48.3394ZM173.468 33.9349H168.84L163.098 52.2499H166.86L167.998 48.4137H174.235L175.399 52.2499H179.21L173.468 33.9349ZM173.369 45.1219H168.865L171.117 37.0782L173.369 45.1219ZM184.867 52.2499V44.8249H187.293L191.203 52.2499H195.114L190.213 43.1419L194.965 33.9349H191.055L187.293 41.5084H184.867V33.9349H181.204V52.2499H184.867Z" fill="white"/>
<path fill-rule="evenodd" clip-rule="evenodd" d="M34.3948 40.5964L28.8625 35.0272H34.3948V40.5964ZM34.3948 53.1263H28.8625L34.3948 47.557V53.1263ZM40.6193 40.5964H35.0869V35.0272H40.6193V40.5964ZM53.0701 40.5964H47.5357V35.0272H53.0701V40.5964ZM46.8457 40.5964H41.3113V35.0272H46.8457V40.5964ZM40.6193 53.1263H35.0869V47.557H40.6193V53.1263ZM53.0701 53.1263H47.5357V47.557H53.0701V53.1263ZM46.8457 53.1263H41.3113V47.557H46.8457V53.1263ZM53.7602 53.1263V47.557H59.2945L53.7602 53.1263ZM59.2945 40.5964H53.7602V35.0272L59.2945 40.5964ZM59.2945 46.8613H53.7602V41.2921H59.2945V46.8613ZM40.6193 28.0666H35.0869V22.4973H40.6193V28.0666ZM34.3948 28.0666H28.8625L34.3948 22.4973V28.0666ZM53.0701 28.0666H47.5357V22.4973H53.0701V28.0666ZM46.8457 28.0666H41.3113V22.4973H46.8457V28.0666ZM53.7602 28.0666V22.4973H59.2945L53.7602 28.0666ZM34.3948 34.3315H28.8625V28.7622H34.3948V34.3315Z" fill="#00FFBB"/>
<path fill-rule="evenodd" clip-rule="evenodd" d="M34.5489 22.1243V28.22H28.4935L34.5489 22.1243ZM34.9328 22.3441H40.7733V28.22H34.9328V22.3441ZM35.241 22.6507V27.9134H40.4652V22.6507H35.241ZM41.1573 22.3441H46.9997V28.22H41.1573V22.3441ZM41.4654 22.6507V27.9134H46.6916V22.6507H41.4654ZM47.3817 22.3441H53.2242V28.22H47.3817V22.3441ZM47.6898 22.6507V27.9134H52.9161V22.6507H47.6898ZM53.6061 22.3441H59.6636L53.6061 28.4398V22.3441ZM53.9142 22.6507V27.6936L58.9255 22.6507H53.9142ZM29.2314 27.9134H34.2408V22.8706L29.2314 27.9134ZM28.7084 28.609H34.5489V34.4849H28.7084V28.609ZM29.0165 28.9157V34.1783H34.2408V28.9157H29.0165ZM53.6061 34.6542L59.6636 40.7499H53.6061V34.6542ZM28.4935 34.874H34.5489V40.9697L28.4935 34.874ZM29.2314 35.1806L34.2408 40.2234V35.1806H29.2314ZM34.9328 34.874H40.7733V40.7499H34.9328V34.874ZM35.241 35.1806V40.4432H40.4652V35.1806H35.241ZM41.1573 34.874H46.9997V40.7499H41.1573V34.874ZM41.4654 35.1806V40.4432H46.6916V35.1806H41.4654ZM47.3817 34.874H53.2242V40.7499H47.3817V34.874ZM47.6898 35.1806V40.4432H52.9161V35.1806H47.6898ZM53.9142 35.4004V40.4432H58.9255L53.9142 35.4004ZM53.6061 41.1389H59.4486V47.0148H53.6061V41.1389ZM53.9142 41.4455V46.7082H59.1405V41.4455H53.9142ZM34.5489 47.184V53.2797H28.4935L34.5489 47.184ZM34.9328 47.4038H40.7733V53.2797H34.9328V47.4038ZM35.241 47.7104V52.9731H40.4652V47.7104H35.241ZM41.1573 47.4038H46.9997V53.2797H41.1573V47.4038ZM41.4654 47.7104V52.9731H46.6916V47.7104H41.4654ZM47.3817 47.4038H53.2242V53.2797H47.3817V47.4038ZM47.6898 47.7104V52.9731H52.9161V47.7104H47.6898ZM53.6061 47.4038H59.6636L53.6061 53.4995V47.4038ZM53.9142 47.7104V52.7533L58.9255 47.7104H53.9142ZM29.2314 52.9731H34.2408V47.9303L29.2314 52.9731Z" fill="#00FFBB"/>
<path fill-rule="evenodd" clip-rule="evenodd" d="M36.4571 59.3145H37.6224V64.4777H42.2062L41.2517 65.5025H36.4571V59.3145ZM21.9261 63.0076H19.3966C19.3787 63.0076 19.3628 63.0076 19.3469 63.0076C18.3327 63.0076 17.5114 62.1819 17.5114 61.161C17.5114 60.1422 18.3327 59.3145 19.3469 59.3145C19.3628 59.3145 19.3787 59.3145 19.3966 59.3164V59.3145H23.7597L22.471 60.5127H19.3449C18.9889 60.5127 18.7006 60.8023 18.7006 61.161C18.7006 61.5197 18.9889 61.8094 19.3449 61.8094H22.0733V61.8153C23.0179 61.8922 23.7597 62.6864 23.7597 63.656C23.7597 64.6768 22.9383 65.5025 21.9241 65.5025C21.8744 65.5025 21.8247 65.5005 21.777 65.4966V65.5025H17.4119L18.8 64.3043H21.9261C22.2821 64.3043 22.5704 64.0146 22.5704 63.656C22.5704 63.2973 22.2821 63.0076 21.9261 63.0076ZM28.0253 59.3164V59.3145H32.1915V59.3164C32.7821 59.342 33.2574 59.819 33.2812 60.4121H33.2832V64.3043H33.2812C33.2832 64.3221 33.2832 64.3378 33.2832 64.3556C33.2832 64.9724 32.798 65.4749 32.1915 65.5025H28.0253C27.4187 65.4749 26.9335 64.9724 26.9335 64.3556C26.9335 64.3378 26.9355 64.3221 26.9355 64.3043H26.9335V60.4121H26.9355C26.9614 59.819 27.4347 59.342 28.0253 59.3164ZM28.8068 60.4141C28.4369 60.4299 28.1406 60.7294 28.1247 61.1039V63.5515C28.1247 63.5614 28.1247 63.5732 28.1247 63.583C28.1247 63.9713 28.427 64.2886 28.8068 64.3043H31.4099C31.7898 64.2886 32.092 63.9713 32.092 63.583C32.092 63.5732 32.092 63.5614 32.092 63.5515V61.1039C32.0761 60.7294 31.7798 60.4299 31.4099 60.4141V60.4121H28.8068V60.4141ZM46.5415 61.0112V62.2094H50.5088V61.0112C50.5088 60.625 50.1986 60.3136 49.8148 60.3136H47.2355C46.8537 60.3136 46.5415 60.625 46.5415 61.0112ZM50.5088 65.5025V63.1081H46.5415V65.5025H45.3523V60.5127C45.3523 60.4969 45.3523 60.4791 45.3523 60.4634C45.3523 59.8288 45.8614 59.3145 46.4918 59.3145C46.5097 59.3145 46.5256 59.3145 46.5415 59.3164V59.3145H50.6082V59.3164C51.2168 59.342 51.7 59.8446 51.7 60.4634C51.7 60.4791 51.7 60.4969 51.698 60.5127H51.7V65.5025H50.5088ZM65.5866 61.0112V62.2094H69.554V61.0112C69.554 60.625 69.2437 60.3136 68.8599 60.3136H66.2807C65.8989 60.3136 65.5866 60.625 65.5866 61.0112ZM69.554 65.5025V63.1081H65.5866V65.5025H64.3974V60.5127C64.3974 60.4969 64.3974 60.4791 64.3974 60.4634C64.3974 59.8288 64.9065 59.3145 65.5369 59.3145C65.5548 59.3145 65.5707 59.3145 65.5866 59.3164V59.3145H69.6534V59.3164C70.2619 59.342 70.7452 59.8446 70.7452 60.4634C70.7452 60.4791 70.7452 60.4969 70.7432 60.5127H70.7452V65.5025H69.554ZM60.0324 64.0048V59.3145H61.2216V65.5025H60.0324V65.4927L56.0651 60.9127V65.5025H54.8739V59.3145H56.0651L60.0324 64.0048Z" fill="white"/>
</svg>
