<svg width="144" height="60" viewBox="0 0 144 60" fill="none" xmlns="http://www.w3.org/2000/svg">
<path fill-rule="evenodd" clip-rule="evenodd" d="M12.2838 4.95557L9.19849 2.15179C4.81688 6.29639 2.08691 12.1422 2.08691 18.6201C2.08691 25.098 4.81688 30.9438 9.19849 35.0884L12.2838 32.2845C8.57952 28.8834 6.26083 24.0203 6.26083 18.6201C6.26083 13.22 8.57952 8.35675 12.2838 4.95557ZM18.4747 10.5817L15.3739 7.76376C12.3448 10.4174 10.4347 14.2976 10.4347 18.6201C10.4347 22.9425 12.3448 26.8229 15.3739 29.4763L18.4747 26.6584C16.1161 24.7618 14.6087 21.8654 14.6087 18.6201C14.6087 15.3747 16.1161 12.4784 18.4747 10.5817ZM40.8884 2.15248C45.27 6.29707 48 12.1428 48 18.6208C48 25.0986 45.27 30.9445 40.8884 35.089L37.8031 32.2854C41.5074 28.884 43.826 24.0209 43.826 18.6208C43.826 13.2207 41.5074 8.35743 37.8031 4.95626L40.8884 2.15248ZM39.6521 18.6208C39.6521 14.2983 37.7421 10.4181 34.7129 7.76442L31.6121 10.5824C33.9708 12.479 35.4782 15.3754 35.4782 18.6208C35.4782 21.8661 33.9708 24.7624 31.6121 26.6592L34.7129 29.4772C37.7421 26.8235 39.6521 22.9432 39.6521 18.6208Z" fill="#FF8519"/>
<path fill-rule="evenodd" clip-rule="evenodd" d="M18.7825 18.6207C18.7825 22.0488 21.5855 24.8276 25.0433 24.8276C28.5012 24.8276 31.3042 22.0488 31.3042 18.6207C31.3042 15.1927 28.5012 12.4138 25.0433 12.4138C21.5855 12.4138 18.7825 15.1927 18.7825 18.6207ZM27.1303 18.6207C27.1303 19.7634 26.196 20.6897 25.0433 20.6897C23.8907 20.6897 22.9564 19.7634 22.9564 18.6207C22.9564 17.4781 23.8907 16.5517 25.0433 16.5517C26.196 16.5517 27.1303 17.4781 27.1303 18.6207Z" fill="#3B4A60"/>
<path d="M30.1989 47.5862L28.6725 43.3856H21.5107L20.0556 47.5862H15.9326L24.2642 26.5833H25.8906L34.2933 47.5862H30.1989ZM25.0773 32.9195L22.5664 40.5712H27.5883L25.0773 32.9195ZM46.1486 47.6003V46.3275C45.6446 46.7518 44.9503 47.1147 44.0659 47.4166C43.1812 47.7182 42.3681 47.869 41.6262 47.869C38.0786 47.869 36.3049 46.0022 36.3049 42.2684V32.4387H39.8715V41.9996C39.8715 43.9419 40.7511 44.9131 42.5107 44.9131C43.3191 44.9131 44.0704 44.7056 44.7648 44.2908C45.4591 43.8759 45.9203 43.3951 46.1486 42.8483V32.4387H49.7153V47.6003H46.1486ZM63.3967 47.5862V46.667C63.1018 46.9875 62.6024 47.2703 61.8987 47.5155C61.1948 47.7513 60.4673 47.869 59.716 47.869C57.5854 47.869 55.9068 47.1997 54.6799 45.8607C53.4626 44.5219 52.8538 42.6548 52.8538 40.26C52.8538 37.865 53.553 35.9181 54.951 34.4187C56.3587 32.9102 58.1182 32.1559 60.2295 32.1559C61.3899 32.1559 62.4455 32.3915 63.3967 32.863V26.7956L66.9631 25.9469V47.5862H63.3967ZM63.3967 36.0594C62.6358 35.4559 61.8415 35.1542 61.0142 35.1542C59.5876 35.1542 58.489 35.5879 57.7185 36.4554C56.9482 37.3134 56.563 38.5486 56.563 40.1609C56.563 43.3103 58.0944 44.8848 61.1568 44.8848C61.4993 44.8848 61.9177 44.7859 62.4123 44.5879C62.9163 44.3803 63.2444 44.173 63.3967 43.9655V36.0594ZM77.3063 50.0189C76.9258 51.0277 76.1079 51.8621 74.8524 52.5221C73.6065 53.1917 72.1513 53.5264 70.4869 53.5264V50.4008C73.2357 50.4008 74.6099 49.717 74.6099 48.3499C74.6099 47.4447 74.2295 46.0587 73.4686 44.1919L68.6894 32.4387H72.3844L76.5502 42.9048L80.3021 32.4387H83.9971L77.3063 50.0189ZM85.2098 46.6103L86.4795 43.7959C87.5447 44.635 88.7478 45.0546 90.0889 45.0546C91.4776 45.0546 92.1717 44.5643 92.1717 43.5836C92.1717 43.0084 91.9626 42.5371 91.5441 42.1692C91.1255 41.8016 90.3124 41.3679 89.1045 40.8681C86.4699 39.7837 85.1528 38.2657 85.1528 36.3141C85.1528 35.0034 85.6568 33.985 86.665 33.259C87.673 32.5235 88.9619 32.1559 90.5311 32.1559C92.1195 32.1559 93.6127 32.5095 95.0108 33.2166L93.9836 35.9605C93.2037 35.3003 92.1195 34.9703 90.7308 34.9703C89.4849 34.9703 88.862 35.4606 88.862 36.4413C88.862 36.8278 89.0665 37.1768 89.4753 37.4878C89.8844 37.799 90.7594 38.2186 92.1005 38.7466C93.4414 39.2652 94.4068 39.8969 94.9966 40.6419C95.5861 41.3868 95.881 42.2872 95.881 43.3432C95.881 44.7482 95.3532 45.8559 94.2975 46.667C93.2513 47.4683 91.8246 47.869 90.0175 47.869C88.9999 47.869 88.182 47.7842 87.5637 47.6146C86.9551 47.4542 86.1704 47.1195 85.2098 46.6103ZM97.7927 46.6103L99.0624 43.7959C100.128 44.635 101.331 45.0546 102.672 45.0546C104.06 45.0546 104.755 44.5643 104.755 43.5836C104.755 43.0084 104.545 42.5371 104.127 42.1692C103.708 41.8016 102.895 41.3679 101.687 40.8681C99.0528 39.7837 97.7357 38.2657 97.7357 36.3141C97.7357 35.0034 98.2397 33.985 99.2479 33.259C100.256 32.5235 101.545 32.1559 103.114 32.1559C104.702 32.1559 106.196 32.5095 107.594 33.2166L106.566 35.9605C105.787 35.3003 104.702 34.9703 103.314 34.9703C102.068 34.9703 101.445 35.4606 101.445 36.4413C101.445 36.8278 101.649 37.1768 102.058 37.4878C102.467 37.799 103.342 38.2186 104.683 38.7466C106.024 39.2652 106.99 39.8969 107.579 40.6419C108.169 41.3868 108.464 42.2872 108.464 43.3432C108.464 44.7482 107.936 45.8559 106.88 46.667C105.834 47.4683 104.408 47.869 102.6 47.869C101.583 47.869 100.765 47.7842 100.147 47.6146C99.538 47.4542 98.7533 47.1195 97.7927 46.6103ZM124.956 41.0944H114.042C114.109 42.3012 114.527 43.2395 115.297 43.909C116.068 44.5783 117.105 44.9131 118.407 44.9131C120.034 44.9131 121.27 44.4935 122.117 43.6543L123.501 46.3558C122.245 47.3646 120.371 47.869 117.88 47.869C115.55 47.869 113.704 47.195 112.344 45.8466C110.994 44.4888 110.319 42.5983 110.319 40.1752C110.319 37.7897 111.06 35.8566 112.544 34.3763C114.037 32.8959 115.825 32.1559 117.908 32.1559C120.124 32.1559 121.903 32.8111 123.244 34.1218C124.585 35.4325 125.255 37.1013 125.255 39.1285C125.255 39.5621 125.155 40.2176 124.956 41.0944ZM114.17 38.4354H121.675C121.427 36.2197 120.191 35.1118 117.965 35.1118C115.93 35.1118 114.665 36.2197 114.17 38.4354ZM134.885 50.0189C134.505 51.0277 133.687 51.8621 132.431 52.5221C131.185 53.1917 129.73 53.5264 128.066 53.5264V50.4008C130.814 50.4008 132.189 49.717 132.189 48.3499C132.189 47.4447 131.808 46.0587 131.048 44.1919L126.268 32.4387H129.963L134.129 42.9048L137.881 32.4387H141.576L134.885 50.0189Z" fill="#3B4A60"/>
</svg>
