<svg width="48" height="48" viewBox="0 0 48 48" fill="none" xmlns="http://www.w3.org/2000/svg">
<path d="M48 9.60156C46.2031 10.3984 44.3984 11 42.3984 11.2031C44.3984 10 46 8 46.7969 5.79688C44.7969 7 42.7969 7.79688 40.6016 8.20313C38.6016 6.20313 36 5 33.2031 5C27.7969 5 23.3984 9.39844 23.3984 14.7969C23.3984 15.6016 23.3984 16.3984 23.6016 17C15.3984 16.6016 8.20313 12.7969 3.39844 6.79688C2.39844 8.20313 2 10 2 11.7969C2 15.2031 3.79688 18.2031 6.39844 20C4.79688 19.7969 3.20313 19.3984 2 18.7969C2 18.7969 2 18.7969 2 19C2 23.7969 5.39844 27.7969 9.79688 28.6016C9 28.7969 8.20313 29 7.20313 29C6.60156 29 6 29 5.39844 28.7969C6.60156 32.7969 10.2031 35.6016 14.6016 35.6016C11.2031 38.2031 7 39.7969 2.39844 39.7969C1.60156 39.7969 0.796876 39.7969 0 39.6016C4.39844 42.3984 9.60156 44 15 44C33.2031 44 43 29 43 16C43 15.6016 43 15.2031 43 14.7969C45 13.3984 46.6016 11.6016 48 9.60156Z" fill="#00FFAD"/>
</svg>
