<svg width="16" height="16" viewBox="0 0 16 16" fill="none" xmlns="http://www.w3.org/2000/svg">
<path d="M13.5094 1.96124C13.5106 1.91471 13.5112 1.86821 13.5112 1.82143L13.5072 1.34277H2.45653V1.82143C2.45653 1.86824 2.45716 1.91474 2.45841 1.96121C2.45841 1.96124 2.45841 1.96127 2.45841 1.96131H0L0.0798438 2.49818C0.0854063 2.53543 0.222219 3.42062 0.808281 4.3065C1.30422 5.05622 2.21225 5.93487 3.78694 6.10534C3.77847 6.11809 3.76966 6.13065 3.76003 6.14268C3.61734 6.3219 3.34709 6.41278 2.95681 6.41278V7.34887C3.6465 7.34887 4.16309 7.13922 4.49234 6.72578C4.60316 6.58665 4.68078 6.43825 4.73453 6.29059C4.73456 6.29062 4.73459 6.29065 4.73462 6.29065C5.20859 6.63606 5.73906 6.90815 6.30978 7.08947V8.04087H9.65791V7.08947C10.2389 6.90475 10.7784 6.62609 11.2587 6.27162C11.2587 6.27159 11.2587 6.27156 11.2587 6.27153C11.3127 6.42547 11.392 6.58062 11.5076 6.72575C11.8368 7.13919 12.3534 7.34884 13.0431 7.34884V6.41275C12.6551 6.41275 12.3857 6.3229 12.2424 6.14578C12.2319 6.13278 12.2223 6.11915 12.2131 6.10528C13.7878 5.93478 14.6957 5.05615 15.1917 4.30643C15.7777 3.42053 15.9146 2.5354 15.9201 2.49812L16 1.96124H13.5094ZM1.14722 2.89743H2.562C2.72425 3.71837 3.06938 4.47471 3.55269 5.12184C3.55275 5.1219 3.55278 5.12197 3.55284 5.12203C2.02531 4.80828 1.3925 3.60956 1.14722 2.89743ZM12.4093 5.12956C12.4093 5.12947 12.4094 5.1294 12.4094 5.12931C12.8959 4.48031 13.2428 3.72146 13.4057 2.89743H14.8526C14.6051 3.61596 13.9638 4.82812 12.4093 5.12956Z" fill="#FEDC2B"/>
<path d="M10.9368 11.9381V8.97656H5.03088V11.9381H4.02332V14.6568H11.9446V11.9381H10.9368ZM8.49476 11.3471L7.98488 11.0791L7.47501 11.3471L7.57235 10.7792L7.15954 10.377L7.72994 10.2943L7.98488 9.77756L8.23982 10.2943L8.81023 10.377L8.39741 10.7792L8.49476 11.3471Z" fill="#FEDC2B"/>
</svg>
